<?xml version="1.0" standalone="no"?>
<!DOCTYPE svg PUBLIC "-//W3C//DTD SVG 1.1//EN" "http://www.w3.org/Graphics/SVG/1.1/DTD/svg11.dtd" >
<!--
2013-9-30: Created.
-->
<svg>
<metadata>
Created by iconfont
</metadata>
<defs>

<font id="iconfont" horiz-adv-x="1024" >
  <font-face
    font-family="iconfont"
    font-weight="500"
    font-stretch="normal"
    units-per-em="1024"
    ascent="896"
    descent="-128"
  />
    <missing-glyph />
    
    <glyph glyph-name="x" unicode="x" horiz-adv-x="1001"
d="M281 543q-27 -1 -53 -1h-83q-18 0 -36.5 -6t-32.5 -18.5t-23 -32t-9 -45.5v-76h912v41q0 16 -0.5 30t-0.5 18q0 13 -5 29t-17 29.5t-31.5 22.5t-49.5 9h-133v-97h-438v97zM955 310v-52q0 -23 0.5 -52t0.5 -58t-10.5 -47.5t-26 -30t-33 -16t-31.5 -4.5q-14 -1 -29.5 -0.5
t-29.5 0.5h-32l-45 128h-439l-44 -128h-29h-34q-20 0 -45 1q-25 0 -41 9.5t-25.5 23t-13.5 29.5t-4 30v167h911zM163 247q-12 0 -21 -8.5t-9 -21.5t9 -21.5t21 -8.5q13 0 22 8.5t9 21.5t-9 21.5t-22 8.5zM316 123q-8 -26 -14 -48q-5 -19 -10.5 -37t-7.5 -25t-3 -15t1 -14.5
t9.5 -10.5t21.5 -4h37h67h81h80h64h36q23 0 34 12t2 38q-5 13 -9.5 30.5t-9.5 34.5q-5 19 -11 39h-368zM336 498v228q0 11 2.5 23t10 21.5t20.5 15.5t34 6h188q31 0 51.5 -14.5t20.5 -52.5v-227h-327z" />
    

    
    <glyph glyph-name="tongzhi" unicode="&#58906;" d="M844.806626 747.816189c63.476238 0 114.935298-146.548704 114.935298-327.325977 0-180.777273-51.458037-327.325977-114.935298-327.325977-63.477261 0-114.935298 146.548704-114.935298 327.325977C729.871328 601.267485 781.329365 747.816189 844.806626 747.816189zM729.870305 713.684834 172.614269 476.860057l0-264.685311 93.918798-15.259542 57.644177-216.651318c0 0 18.478597-18.842137 41.616498-23.87271 26.698129-5.804193 48.754351 0 48.754351 0L414.548093 172.862391l315.322212-51.237965C729.870305 121.623403 576.624946 428.10361 729.870305 713.684834zM116.887846 233.071681l0 215.927841C-1.528882 351.483558 116.887846 233.071681 116.887846 233.071681z"  horiz-adv-x="1024" />

    
    <glyph glyph-name="kangshuailao" unicode="&#59155;" d="M409.863808 530.641961c0 0-42.343387 29.710672-84.687798 29.587875s-84.687798-29.587875-84.687798-29.587875l0 30.699186c0 0 36.462446 28.170596 84.687798 30.523177 48.224328 2.352581 84.687798-30.523177 84.687798-30.523177L409.863808 530.641961zM773.314541 530.641961c0 0-42.343387 29.710672-84.687798 29.587875s-84.687798-29.587875-84.687798-29.587875l0 30.699186c0 0 36.462446 28.170596 84.687798 30.523177 48.224328 2.352581 84.687798-30.523177 84.687798-30.523177L773.314541 530.641961zM610.996688 256.763267c0 0-50.28322-29.710672-100.56644-29.587875-50.28322 0.12382-100.56644 29.587875-100.56644 29.587875l0-30.699186c0 0 43.299155-28.170596 100.56644-30.523177s100.56644 30.523177 100.56644 30.523177L610.996688 256.763267zM880.904954 642.524121l-11.101849 18.254759-16.872273-22.39301-0.556679-0.772596-0.373507 0.336668c0 0-0.013303-0.314155-0.041956-0.913812l-66.020646-91.576695 24.90318-17.952884 36.219923 50.240241c-6.916527-64.757886-22.955828-172.779112-58.94039-278.868335-52.461839-154.667615-148.691507-305.195957-276.119735-311.559898l0-33.589003c150.104693 9.934257 256.290107 180.290179 311.922149 344.971869 38.752606 114.714671 52.199872 226.653113 56.671721 279.710516l27.653827-51.2922 27.021423 14.56881L880.904954 642.524121zM290.605657 144.275309c-27.976168 47.14167-50.754964 100.789521-67.465554 154.995073-51.870368 168.259168-47.834448 341.748455-47.834448 341.748455l-34.794457-30.699186c0 0-4.564969-152.35392 44.661176-310.333978 16.990976-54.528917 40.129976-109.710704 68.862367-159.545716l-66.095347 35.357276-14.479783-27.069519 116.298749-62.212924 28.253484-13.430894 0.682545 17.135262 6.451946 131.736347-30.662347 1.50119L290.605657 144.275309z"  horiz-adv-x="1024" />

    
    <glyph glyph-name="xingti" unicode="&#59160;" d="M169.376619-31.780429l-30.361495 8.632611c0 0 176.87029 253.956969 177.227424 367.135658S217.303164 578.510178 217.303164 578.510178l42.642193-4.54041c0 0 86.87358-129.371486 86.958514-232.520751C346.988806 238.300776 169.376619-31.780429 169.376619-31.780429zM853.540723-23.514161l30.361495 8.632611c0 0-155.409512 177.60707-154.713664 354.855984s114.289999 290.807249 114.289999 290.807249l-42.642193-4.54041c0 0-102.30913-81.82561-102.30913-288.805662S853.540723-23.514161 853.540723-23.514161zM491.57463 133.733355A20.69 27.011 0 1 1 491.187308 132.786183Z"  horiz-adv-x="1024" />

    
    <glyph glyph-name="team" unicode="&#59559;" d="M512.006 428.876c42.421 0 82.435 16.65 112.671 46.885 30.238 30.235 46.892 70.252 46.892 112.677s-16.653 82.441-46.892 112.677C594.44 731.349 554.427 748 512.006 748c-42.42 0-82.436-16.649-112.674-46.883-30.244-30.237-46.9-70.254-46.9-112.679s16.656-82.441 46.9-112.679C429.57 445.526 469.586 428.876 512.006 428.876zM444.582 655.857C462.733 674.004 486.678 684 512.006 684c25.326 0 49.27-9.994 67.418-28.142 18.149-18.147 28.145-42.091 28.145-67.42s-9.995-49.272-28.145-67.42c-18.148-18.147-42.092-28.142-67.418-28.142-25.328 0-49.272 9.995-67.424 28.143-18.153 18.149-28.15 42.092-28.15 67.419S426.429 637.708 444.582 655.857zM223.863 587.492C153.829 587.492 96 529.965 96 459.93c0-70.034 57.829-127.259 127.863-127.259 70.048 0 127.26 57.225 127.26 127.259C351.123 529.965 293.911 587.492 223.863 587.492zM268.505 415.292c-12.007-12.008-27.86-18.62-44.642-18.62-16.893 0-32.904 6.665-45.088 18.769C166.668 427.469 160 443.27 160 459.93c0 16.719 6.694 32.6 18.85 44.715 12.193 12.154 28.18 18.847 45.014 18.847 16.723 0 32.551-6.64 44.567-18.696 12.054-12.095 18.692-28.027 18.692-44.865C287.123 443.151 280.512 427.298 268.505 415.292zM928 459.93c0 70.035-57.828 127.562-127.861 127.562-70.035 0-127.26-57.526-127.26-127.562 0-70.034 57.225-127.259 127.26-127.259C870.172 332.671 928 389.896 928 459.93zM736.879 459.93c0 16.835 6.64 32.768 18.695 44.863 12.019 12.058 27.846 18.698 44.564 18.698 16.834 0 32.819-6.692 45.012-18.846C857.306 492.53 864 476.649 864 459.93c0-16.661-6.668-32.461-18.775-44.49-12.182-12.104-28.194-18.769-45.086-18.769-16.777 0-32.63 6.613-44.639 18.622C743.492 427.301 736.879 443.153 736.879 459.93zM223.808-22.14l-79.746 0c-10.802 0-18.257 7.455-18.257 18.271L125.805 99.124c0 57.225 36.028 104.842 87.071 121.773 11.812 3.491 16.643 4.816 23.139 9.135 7.612 5.486 12.482 14.279 12.482 24.359 0 16.695-13.44 30.135-30.148 30.135-5.866-0.065-11.405-0.958-17.036-2.428C121.985 259.13 64 185.723 64 99.124l0-102.993c0-43.838 36.237-80.089 80.062-80.089l79.746 0c16.354-0.236 31.657 14.713 31.657 31.054C255.465-36.551 240.161-21.916 223.808-22.14zM822.686 282.099c-5.631 1.47-11.168 2.362-17.049 2.428-16.695 0-30.135-13.439-30.135-30.135 0-10.08 4.855-18.873 12.482-24.359 6.496-4.318 11.326-5.644 23.139-9.135 51.043-16.932 87.07-64.549 87.07-121.773l0-102.993c0-10.815-7.455-18.271-18.27-18.271l-79.732 0c-16.34 0.236-31.67-14.411-31.67-30.765 0-16.341 15.33-31.276 31.67-31.054l79.732 0c43.838 0 80.076 36.251 80.076 80.089L959.999 99.124C960 185.723 902.014 259.13 822.686 282.099zM511.848 363.472c-104.934 0-190.284-85.339-190.284-190.286l0-179.264 0-6.09 0-55.702c0-43.838 36.237-80.089 80.075-80.089 0.98-0.056 219.438-0.056 220.42 0 43.824 0 80.363 36.041 80.363 80.089l0 55.702 0 6.09L702.422 173.187C702.422 278.133 616.781 363.472 511.848 363.472zM640.314-6.077l0-6.09 0-55.702c0-10.605-7.455-18.271-18.256-18.271-1.014 0.058-219.406 0.058-220.42 0-10.816 0-18.271 7.455-18.271 18.271l0 55.702 0 6.09L383.367 173.187c0 71.701 56.779 128.493 128.48 128.493 71.689 0 128.467-56.792 128.467-128.493L640.314-6.077z"  horiz-adv-x="1024" />

    
    <glyph glyph-name="listfilter" unicode="&#59016;" d="M384.008075-212c-23.594667 0-42.666667 19.029333-42.666667 42.581333L341.341408 411.317333 12.509408 739.338667C0.306742 751.541333-3.362592 769.802667 3.250742 785.717333 9.821408 801.632 25.437408 812 42.674742 812l938.666667 0c17.237333 0 32.853333-10.368 39.424-26.282667 6.613333-15.914667 2.944-34.218667-9.258667-46.378667L682.674742 411.317333l0-367.957333c0-23.509333-19.072-42.538667-42.666667-42.538667s-42.666667 19.029333-42.666667 42.538667L597.341408 428.938667c0 11.306667 4.48 22.101333 12.501333 30.08l268.501333 267.818667L145.672075 726.837333l268.501333-267.818667C422.194742 451.082667 426.674742 440.245333 426.674742 428.938667l0-598.357333C426.674742-192.970667 407.602742-212 384.008075-212z"  horiz-adv-x="1025" />

    
    <glyph glyph-name="nvshengzhixitong" unicode="&#59002;" d="M178.17654 435.529743c-0.030699-0.061398-0.030699-0.12382-0.062422-0.184195-2.197038-4.308119-7.310499-4.838192-23.022343-7.236821-2.295276-0.344854-2.695389-1.1328-1.051959-2.535753 6.209422-5.243421 3.471055-13.305027-5.095042-13.305027-5.384637 0-20.074198 2.818185-26.76355 2.818185-3.526313 0 3.317559-6.597255 5.913687-9.304923 4.418636-4.590552 7.323802-7.618515 7.206122-11.692297-0.110517-3.75451-3.064802-6.953366-7.139607-6.953366-1.962701 0-4.313236 0.811482-7.845689 2.781346 2.830465-5.956665 6.769171-11.766998 11.864212-17.194614 15.705704-16.738219 39.330774-27.557636 60.192917-27.557636 46.105061 0 58.262962 23.717168 59.059094 32.850176 0.849344 9.80839-3.64297 20.640086-12.646018 30.462802C224.608036 423.935684 202.367499 433.707234 178.17654 435.529743zM356.875478 383.294055c-8.861832 2.954285-19.390629 5.045923-30.061666 5.045923-33.926694 0-47.434336-12.480242-63.225997-13.489222-0.578168-3.212158-1.760087-6.646374-3.618411-10.080589 3.963265-0.898463 8.276501-1.169639 11.279904-1.169639 22.024619 0 47.926546 22.487154 91.263563 4.65195C360.56859 373.189929 358.678544 378.199013 356.875478 383.294055zM699.361737 388.341001c-10.298554 0-20.465101-2.091638-29.02608-5.045923-1.746784-5.095042-3.568269-10.105149-5.446036-15.040555 41.865503 17.83418 66.894549-4.65195 88.175225-4.65195 2.891863 0 7.063883 0.271176 10.889001 1.169639-1.793856 3.433192-2.937912 6.867408-3.479241 10.080589C745.198691 375.860758 732.157677 388.341001 699.361737 388.341001zM895.836527 387.134523c-4.072759 0-7.028067 3.198855-7.138584 6.953366-0.122797 4.073782 2.792603 7.101745 7.199982 11.692297 2.597151 2.696412 9.441023 9.304923 5.919826 9.304923-3.790326 0-9.661034-0.824785-14.856359-1.550309-4.875031-0.689708-9.070586-1.267876-11.901051-1.267876-6.388501 0-7.930623 3.852748-8.295943 5.514597-0.898463 4.036943 2.092661 6.092765 4.875031 9.243525 0 0-0.222057 0.861624-0.703011 0.898463-17.443277 1.402953-22.756283 2.942005-25.047466 7.42204-0.036839 0.061398-0.036839 0.122797-0.061398 0.184195-24.197098-1.821485-46.440705-11.594059-60.619636-27.053146-8.993838-9.822716-13.486152-20.653389-12.637832-30.462802 0.788969-9.133008 12.947893-32.850176 59.053977-32.850176 20.862143 0 44.493354 10.818393 60.194964 27.557636 5.099135 5.427616 9.036817 11.236925 11.869329 17.194614C900.155902 387.947028 897.805368 387.134523 895.836527 387.134523zM618.66688 161.147582c4.78805 29.90817-16.751522 49.489134-17.139356 97.748255 0 0.309038 0.030699 0.641613 0.036839 0.948605-10.220782-11.989055-32.635281-30.277584-45.131897-39.729863 40.905642 52.849672 112.187105 181.579545 118.093629 234.95929 3.213181 0.565888 6.29538 0.836041 9.274224 0.836041 28.652574 0 47.219441-24.14798 70.284763-24.14798 31.250748 0 42.130539 23.508413 64.395636 38.105876 2.954285 1.944282 24.492834 5.551436 47.053666 14.757099 19.039635 7.754614 38.438451 20.677948 54.437843 20.677948 1.107217 0 2.190899-0.061398 3.273557-0.184195 18.965957-2.301416 29.93273-11.938913 29.93273-28.862351 0-20.813025-16.246009-37.748742-38.142715-37.748742-2.854001 0-5.796006 0.282433-8.823969 0.886183-9.773598 1.945305-20.405749 2.684132-29.687136 2.684132-13.464663 0-24.050766-1.526773-24.948205-3.027963-2.228761-3.692089 21.99392-4.849448 30.708396-5.809309 2.806929-0.320295 3.127224-0.12382 1.747807-2.720971-2.523473-4.725628-11.618619-9.009188-11.104919-11.372002 0.089028-0.393973 0.864694-0.553609 2.13257-0.553609 5.279237 0 19.027355 2.805906 26.756387 2.805906 2.00568 0 3.619434-0.197498 4.541433-0.677429 14.142092-7.27366-18.621103-27.2619-10.523681-27.2619 2.411933 0 15.418154 8.590656 22.955828 13.662161 5.809309 3.199878 6.018064 6.313799 6.018064-0.591471 0-8.615215-5.689582-18.437931-5.206582-19.890003 0.332575-0.9967 0.985444-1.439792 1.880837-1.439792 6.144954 0 23.609721 20.271696 26.096355 20.271696 5.119601 0-6.006807-27.680433-3.472078-27.680433 13.870916 0 56.406684 55.496965 56.406684 104.56859 0 31.090089-49.206702 51.176566-80.198553 51.176566-44.480051 0-55.915497-29.03529-96.65434-35.742039-30.43722-5.021364-38.141692-39.349193-71.742974-39.349193-36.074613 0-64.966641 38.32691-85.748966 61.09752-25.029046 53.03489-97.839329 75.6694-154.170289 74.303286-50.886971 1.231037-127.72908-18.277272-154.170289-74.303286-20.782326-22.769586-49.674353-61.09752-85.74999-61.09752-33.600259 0-41.304731 34.326806-71.742974 39.349193-40.739866 6.707772-52.167127 35.742039-96.655364 35.742039-30.991852 0-80.198553-20.086477-80.198553-51.176566 0-43.016723 33.871435-94.340645 52.683896-103.337553 4.523013-2.166339 5.218862-1.870604 3.698229 3.753487-2.02103 7.557116-7.488555 21.194718-3.569292 22.683628 0.036839 0.01228 0.073678 0.01228 0.122797 0.01228 2.489704 0 19.951401-20.271696 26.093285-20.271696 0.898463 0 1.551332 0.443092 1.882883 1.439792 0.565888 1.698688-7.544837 14.893198-4.65809 24.086581 1.058099 3.385097 16.652262-16.259312 28.424376-17.268292 8.689916-0.701988-24.670889 19.97596-10.529821 27.2619 4.323469 2.240017 26.203802-2.1295 31.312146-2.1295 1.261737 0 2.036379 0.159636 2.12336 0.553609 0.326435 1.439792-8.338922 6.510274-10.988262 11.175527-1.418302 2.474354-1.134847 2.905166 1.197268 3.606131 7.827269 2.339278 33.373085 1.428535 31.151487 5.120624-0.898463 1.50119-11.489682 3.027963-24.954345 3.027963-15.864316 0-36.85028-3.569292-38.511105-3.569292-21.895683 0-38.142715 16.923438-38.142715 37.748742 0 16.923438 10.963703 26.560936 29.938869 28.862351 1.076518 0.12382 2.166339 0.184195 3.27458 0.184195 16.000416 0 35.391045-12.922311 54.434773-20.677948 22.562878-9.205663 44.096311-12.812817 47.055712-14.757099 22.255887-14.597463 33.145911-38.105876 64.395636-38.105876 23.053042 0 41.629119 24.14798 70.278623 24.14798 2.978844 0 6.061043-0.271176 9.274224-0.836041 5.266957-47.570435 83.361593-189.629895 119.030977-238.639099-12.504802 9.44-35.847439 31.420617-46.069245 43.409672 0.00614-0.306992 0.036839-0.639566 0.036839-0.948605-0.390903-48.25912-21.926382-67.841108-17.139356-97.748255 7.058766-44.161802 31.933293-79.707366 85.282339-138.477888-42.11826 17.908882-56.333006 37.391608-64.001663 57.428967 4.338818-17.625426 6.28924-39.114856 2.815115-82.439594-2.114151-26.536376 11.701506-70.955028 15.129582-105.244996 1.064238-10.549264-3.944845-20.702508-0.541329-27.939329 0.602727-1.292436 1.329275-1.847068 2.215458-1.847068 6.776334 0 21.542642 30.277584 65.767889 22.289656 43.705408 7.889691 59.44795-22.289656 65.768913-22.289656 0.886183 0 1.607614 0.554632 2.209318 1.847068 3.408633 7.235798-1.599428 17.390066-0.542352 27.939329 3.433192 34.289967 17.249873 78.70862 15.126512 105.244996-3.464915 43.324738-1.51347 64.814168 2.825348 82.439594-9.893324-24.775266-29.903054-44.259016-60.106959-56.357566C588.931648 79.926746 611.558995 116.727906 618.66688 161.147582z"  horiz-adv-x="1024" />

    
    <glyph glyph-name="jifen" unicode="&#58991;" d="M115.033431-84.066259c0-34.976606 30.217209-63.394842 67.451228-63.394842l219.49918 0-0.62217 425.626817L112.724853 278.165716 115.033431-84.066259 115.033431-84.066259 115.033431-84.066259zM621.573069-147.462125l219.409129 0c37.235043 0 67.449181 28.418236 67.449181 63.394842l2.310625 362.230951L622.19217 278.163669 621.573069-147.462125 621.573069-147.462125 621.573069-147.462125zM64.023664 322.775726l337.959152 0L401.982816 501.544249 131.473869 501.544249c-37.235043 0-67.450205-28.176736-67.450205-62.908772L64.023664 322.775726 64.023664 322.775726 64.023664 322.775726zM621.573069 501.544249l0-178.768523 337.868077 0L959.441147 438.634454c0 34.732036-30.216185 62.908772-67.449181 62.908772L621.573069 501.543226 621.573069 501.544249 621.573069 501.544249zM449.347566 501.544249l124.769678 0 0-649.00535L449.347566-147.461101 449.347566 501.544249 449.347566 501.544249 449.347566 501.544249zM306.450019 546.638283 717.013769 546.638283c35.282574 0 118.280894 33.761941 118.280894 126.303614 0 44.936445-34.125215 75.05337-84.954881 75.05337-50.833759 0-119.170147-30.523177-174.447101-83.876316-16.97051 15.057951-39.632649 24.448832-64.783469 24.448832-24.793686 0-47.186695-9.229199-64.072271-23.88192-55.186903 52.947909-123.256208 83.310428-173.909865 83.310428-50.743708 0-84.868923-30.116925-84.868923-75.05337C188.259176 580.400225 271.260565 546.638283 306.450019 546.638283L306.450019 546.638283 306.450019 546.638283zM620.060623 613.51646c44.077891 45.255717 98.286514 68.979024 130.279159 68.979024 15.195074 0 15.817244-13.843286 14.483876-20.159132-6.398734-29.388331-42.211381-54.407144-53.584406-57.240679l-87.267553 0c-2.13257 0-4.089132 1.212618-4.888334 2.993171C618.194112 609.872466 618.640274 611.976384 620.060623 613.51646L620.060623 613.51646 620.060623 613.51646zM273.128099 682.496507c32.080649 0 86.200244-23.723308 130.36614-68.979024 1.421372-1.540076 1.775436-3.645017 0.887206-5.426593-0.887206-1.781576-2.75474-2.993171-4.88731-2.993171l-87.175455 0c-11.467169 2.832512-47.189765 27.851325-53.676503 57.240679C257.308809 668.652198 257.930979 682.496507 273.128099 682.496507L273.128099 682.496507 273.128099 682.496507zM273.128099 682.496507"  horiz-adv-x="1024" />

    
    <glyph glyph-name="jia" unicode="&#58943;" d="M512-128C229.222-128 0 101.223 0 384S229.222 896 512 896c282.777 0 512-229.223 512-512S794.778-128 512-128zM512 844.8C257.485 844.8 51.2 638.515 51.2 384c0-254.516 206.284-460.8 460.8-460.8 254.515 0 460.8 206.284 460.8 460.8C972.8 638.515 766.515 844.8 512 844.8zM537.4 589.599l0-435.2c0-14.131-11.469-25.6-25.6-25.6s-25.6 11.469-25.6 25.6l0 435.2c0 14.132 11.469 25.601 25.6 25.601S537.4 603.729 537.4 589.599zM729.4 344.4l-435.2 0c-14.131 0-25.6 11.469-25.6 25.6s11.469 25.6 25.6 25.6l435.2 0C743.531 395.6 755 384.131 755 370S743.531 344.4 729.4 344.4z"  horiz-adv-x="1024" />

    
    <glyph glyph-name="shujia2" unicode="&#58910;" d="M298.051463-61.039959l-194.93778 0L103.113684 649.61038l194.93778 0L298.051463-61.039959zM264.690281 613.391481l-127.918644 0 0-65.491597 127.918644 0L264.690281 613.391481zM358.838403 805.261393l193.412989 0 0-866.228697-193.412989 0L358.838403 805.261393zM523.688694 771.889331 391.682794 771.889331l0-67.535139 132.0059 0L523.688694 771.889331zM971.80817-2.618385l-185.346951-60.391439L566.285602 612.67619l185.346951 60.391439L971.80817-2.618385zM731.133847 628.294912l-121.625046-39.628556 20.290967-62.269205 121.625046 39.628556L731.133847 628.294912z"  horiz-adv-x="1024" />

    
    <glyph glyph-name="daifukuan" unicode="&#58953;" d="M793.6 716.8l-51.2 0c-23.8592 66.9696-97.6896 128-172.8512 128L224.0512 844.8C148.48 844.8 63.1808 773.12 51.2 672.0512l0-576C51.2 0.512 128.512-76.8 224.0512-76.8l576 0c95.4368 0 172.7488 77.312 172.7488 172.7488l0 460.8C972.8 652.288 889.0368 716.8 793.6 716.8zM230.4 793.6l358.4 0c42.5984 0 56.832-42.496 76.8-76.8L230.4 716.8c-43.7248 0-89.7024-3.9936-120.1152-30.8224C117.1456 742.912 171.6224 793.6 230.4 793.6zM921.6 256c0-15.872-9.6256-25.6-25.6-25.6L588.8 230.4c-15.9744 0-25.6 9.728-25.6 25.6L563.2 435.2c0 15.9744 9.6256 51.2 25.6 51.2l307.2 0c15.9744 0 25.6-9.6256 25.6-25.6L921.6 256zM921.6 537.6 563.2 537.6c-31.744 0-51.2-35.4304-51.2-67.1744l0-230.4c0-31.744 25.8048-57.5488 57.5488-57.5488L921.6 179.2l0-76.8c0-63.5904-64.4096-128-128-128L230.4-25.6c-63.5904 0-128 64.4096-128 128L102.4 563.2c0 63.5904 64.4096 102.4 128 102.4l563.2 0c63.5904 0 128-38.8096 128-102.4L921.6 537.6zM614.4 332.8l76.8 0 0 51.2-76.8 0L614.4 332.8z"  horiz-adv-x="1024" />

    
    <glyph glyph-name="yangshengdiaoli" unicode="&#58913;" d="M146.268 721.818c0 0-92.774-341.504-6.021-506.757 72.745-138.568 219.73-172.524 299.151-180.552-0.123-0.225-0.164-0.492-0.287-0.717 1.004 0.246 1.659 0.348 2.437 0.492 31.396-3.052 51.712-2.048 51.712-2.048s82.227 269.414-50.36 415.744c-125.338 138.322-296.632 273.838-296.632 273.838zM462.070 66.888c-0.020 0.102-0.082 0.225-0.102 0.328 7.639 0.451 6.902-0.102 0.102-0.328zM461.844 67.625c-11.059 49.971-112.701 137.155-177.439 236.564-61.051 93.716-66.99 241.623-82.678 291.021-6.328-13.148-13.824-68.854-7.68-123.802 5.837-52.388 14.275-94.413 40.591-149.176 46.1-95.969 172.155-194.499 201.257-254.566-61.092 4.485-195.441 31.212-265.646 167.117-63.713 123.331-6.902 443.761-6.902 443.761s146.719-148.234 247.562-243.425c99.451-93.942 52.49-358.912 50.934-367.493zM920.637 468.582c0 0-182.333-31.642-295.67-128.573-140.268-119.951-71.352-312.013-71.352-312.013s225.362-19.558 317.071 109.036c86.651 121.549 49.951 331.551 49.951 331.551zM842.363 152.494c-51.159-72.172-177.766-95.375-237.015-102.441 41.8 26.092 96.092 87.572 145.859 147.313 56.115 67.359 87.654 138.998 84.828 183.869-4.915-10.895-18.412-57.119-27.382-69.898-23.716-33.792-54.559-79.299-85.668-116.654-55.706-66.867-107.581-119.665-150.671-136.581-4.813 39.895-15.114 182.129 70.574 254.444 84.767 71.537 252.396 122.532 252.396 122.532s11.203-192.082-52.92-282.583z"  horiz-adv-x="1024" />

    
    <glyph glyph-name="zhujitijian" unicode="&#59159;" d="M931.002 259.918c-32.684 0-60.698 19.7-73.81 48.098-52.831-24.753-89.864-78.735-89.864-141.991v-83.532l-2.686-31.34c-14.711-94.597-94.789-167.064-191.688-167.064-107.325 0-194.375 88.84-194.375 198.404v94.981c-182.478 10.873-306.88 164.953-306.88 353.955l0 190.857c-35.242 9.338-61.402 41.702-61.402 80.59 0 46.115 36.649 83.532 81.805 83.532 45.22 0 81.805-37.417 81.805-83.532 0-38.888-26.16-71.251-61.402-80.59v-190.921c0-173.012 116.919-313.212 286.413-313.212s286.413 140.2 286.413 313.212v190.921c-35.114 9.338-61.274 41.702-61.274 80.59 0 46.115 36.649 83.532 81.805 83.532 45.22 0 81.805-37.417 81.805-83.532 0-38.888-26.16-71.251-61.402-80.59v-190.921c0-189.002-124.338-343.082-306.88-353.955v-94.981c0-86.474 68.693-156.638 153.44-156.638s153.44 70.164 153.44 156.638v83.532l2.686 31.34c10.873 70.036 57.884 127.28 120.693 152.609 3.262 43.109 38.12 77.072 81.165 77.072 45.22 0 81.805-37.417 81.805-83.532 0.192-46.115-36.457-83.532-81.613-83.532v0zM133.037 802.874c0 23.090-18.293 41.766-40.934 41.766s-40.87-18.676-40.87-41.766 18.293-41.766 40.934-41.766c22.578 0 40.87 18.676 40.87 41.766v0zM746.861 802.874c0 23.090-18.293 41.766-40.934 41.766-22.642 0-40.934-18.676-40.934-41.766s18.293-41.766 40.934-41.766 40.934 18.676 40.934 41.766v0zM931.002 385.215c-22.642 0-40.934-18.676-40.934-41.766s18.293-41.766 40.934-41.766c22.642 0 40.934 18.676 40.934 41.766-0.064 23.090-18.357 41.766-40.934 41.766v0z"  horiz-adv-x="1024" />

    
    <glyph glyph-name="xiangji" unicode="&#59050;" d="M512 504.075402C422.174624 504.075402 349.335542 431.672614 349.335542 342.368656 349.335542 253.064698 422.174624 180.675389 512 180.675389 601.838934 180.675389 674.664458 253.064698 674.664458 342.368656 674.664458 431.672614 601.838934 504.075402 512 504.075402L512 504.075402ZM240.775082 706.458171 146.069364 706.458171 146.069364 665.660845 240.775082 665.660845 240.775082 706.458171 240.775082 706.458171ZM901.803635 625.335243 724.593051 625.335243C711.145003 634.958398 695.189 651.940438 680.520867 682.049861 662.721181 718.5882 598.558261 719.720336 598.558261 719.720336L391.970738 719.720336C391.970738 719.720336 370.849709 724.936248 345.987086 682.467674 329.149912 653.70603 313.939517 635.888368 299.596739 625.335243L122.182808 625.335243C90.270805 625.335243 64.432113 598.096594 64.432113 564.536851L64.432113 93.379626C64.432113 59.806405 90.270805 32.581232 122.182808 32.581232L901.803635 32.581232C933.715638 32.581232 959.567886 59.806405 959.567886 93.379626L959.567886 564.550326C959.567886 598.11007 933.702083 625.335243 901.803635 625.335243L901.803635 625.335243ZM511.891547 139.999363C399.616605 139.999363 308.598256 230.516323 308.598256 342.166488 308.598256 453.816653 399.616605 544.333614 511.891547 544.333614 624.152934 544.333614 715.184838 453.816653 715.184838 342.166488 715.184838 230.516323 624.152934 139.999363 511.891547 139.999363L511.891547 139.999363ZM803.410549 504.02149C784.729691 504.02149 769.573522 519.130112 769.573522 537.769922 769.573522 556.423208 784.72969 571.531832 803.410549 571.531832 822.118522 571.531832 837.27469 556.423208 837.27469 537.769922 837.27469 519.130114 822.118522 504.02149 803.410549 504.02149L803.410549 504.02149Z"  horiz-adv-x="1024" />

    
    <glyph glyph-name="shengji" unicode="&#58957;" d="M931.071 329.739c-5.651 29.433-20.42 54.652-41.327 76.127-24.174 24.831-53.072 41.057-87.465 46.64-10.512 1.706-21.222 2.204-32.332 3.303 0 1.802-0.032 3.755 0.004 5.707 0.828 44.384-8.724 86.298-30.362 125.183-51.698 92.913-152.963 142.244-258.137 125.945-106.183-16.457-190.471-100.050-207.073-205.518-0.559-3.552-1.652-4.818-5.373-4.947-46.033-1.594-86.041-17.956-119.678-49.513-46.229-43.369-63.73-97.478-57.811-159.502 4.002-41.942 21.609-78.172 51.055-108.405 32.83-33.707 72.694-53.49 119.766-55.521 39.405-1.7 78.931-0.619 118.404-0.699 1.38-0.003 2.761-0.001 4.141-0.003v34.77c-33.82-0.019-67.639-0.017-101.459 0.083-53.916 0.159-98.209 20.694-129.6 65.061-25.437 35.953-34.745 76.166-24.398 119.642 9.63 40.466 31.537 72.774 67.047 95.074 29.382 18.452 61.328 26.845 96.182 23.23 13.155-1.364 13.65-0.758 14.345 12.097 1.523 28.194 8.778 54.91 21.46 80.009 36.471 72.171 95.729 113.399 175.566 120.572 73.413 6.595 135.059-21.506 181.789-78.346 40.169-48.859 55.972-105.604 46.416-168.804-1.503-9.94-0.973-11.791 10.176-11.657 21.067 0.255 42.053 0.463 62.82-5.045 60.669-16.090 102.289-78.053 93.538-140.22-8.766-62.276-61.849-110.117-124.59-111.332-38.916-0.753-77.856-0.287-116.786-0.32-5.553-0.004-11.105 0-16.658-0.002v-34.837c43.403-0.001 86.803 0.003 130.206 0.038 7.085 0.005 14.221 0.083 21.246 0.89 35.883 4.117 67.011 18.585 92.98 43.77 44.837 43.482 57.38 96.757 45.905 156.53zM488.906 383.43c-15.664-13.411-30.011-25.686-44.348-37.973-15.881-13.61-31.694-27.298-47.711-40.745-1.846-1.551-4.758-2.165-7.273-2.512-3.52-0.484-5.423 1.479-5.421 5.105 0.007 11.642-0.307 23.297 0.272 34.909 0.132 2.652 2.924 5.643 5.221 7.638 21.011 18.239 42.183 36.294 63.31 54.402 17.122 14.675 34.245 29.348 51.369 44.022 5.579 4.782 9.67 4.772 15.268-0.027 37.697-32.307 75.331-64.688 113.171-96.827 4.98-4.229 7.589-8.473 7.1-15.249-0.627-8.684 0.076-17.458-0.25-26.176-0.096-2.566-1.323-6.91-2.745-7.225-2.919-0.647-7.155-0.147-9.387 1.674-13.526 11.028-26.64 22.566-39.894 33.929-16.016 13.73-32.033 27.458-48.060 41.177-1.078 0.924-2.235 1.758-4.545 3.564 0-3.070 0-5.102 0-7.135 0.004-103.13 0.006-206.259 0.014-309.39 0.001-9.279-0.326-9.629-9.427-9.634-9.458-0.005-18.916-0.014-28.374 0.002-7.574 0.013-8.303 0.78-8.303 8.572 0.003 103.13 0.007 206.259 0.011 309.389 0.001 2.31 0.001 4.621 0.001 8.509z"  horiz-adv-x="1024" />

    
    <glyph glyph-name="552cc40952152" unicode="&#58986;" d="M430.144-60.96c-22.72 0-44 8.96-59.872 25.248l-68.064 70.176c-12.288 12.672-12 32.832 0.608 45.184 14.272 13.92 22.24 32.544 22.464 52.48 0.224 19.904-7.328 38.688-21.248 52.928-27.904 28.576-77.056 29.152-105.504 1.312-6.08-5.952-15.328-9.056-22.784-9.12-8.512 0.128-16.64 3.584-22.56 9.728l-67.968 70.048c-15.52 15.808-24.032 36.928-23.808 59.296 0.256 22.4 9.216 43.328 25.248 59.008L530.112 809.856c32.192 31.328 87.168 30.624 118.4-1.312l68.128-70.208c12.288-12.672 12-32.864-0.64-45.184-14.24-13.952-22.24-32.608-22.464-52.544-0.224-19.936 7.328-38.72 21.216-52.992 27.872-28.48 77.056-29.12 105.6-1.248 6.08 5.952 14.688 8.384 22.784 9.12 8.512-0.128 16.64-3.616 22.528-9.728l67.936-70.112c15.488-15.712 24-36.768 23.808-59.104-0.192-22.4-9.12-43.392-25.12-59.072L488.672-37.12C472.864-52.512 452.096-60.96 430.144-60.96zM367.808 58.784l48.352-49.888c7.264-7.392 20.224-7.648 27.808-0.224l443.52 434.464c3.776 3.712 5.888 8.672 5.952 13.952 0.032 5.216-1.952 10.112-5.6 13.824l-48.352 49.92c-21.312-12.832-45.824-19.68-71.296-19.68-37.664 0-72.864 14.816-99.2 41.76-25.888 26.464-39.872 61.408-39.456 98.432 0.32 26.176 7.776 51.136 21.504 72.672l-48.384 49.856c-7.2 7.328-20.256 7.552-27.84 0.192L131.392 329.568c-3.808-3.712-5.92-8.672-5.984-13.92-0.032-5.248 1.952-10.176 5.6-13.952l48.32-49.824c21.312 12.832 45.792 19.68 71.232 19.68 37.664 0 72.928-14.848 99.232-41.824 25.856-26.432 39.904-61.376 39.456-98.368C388.96 105.248 381.504 80.288 367.808 58.784zM354.208 312.768c-8.192 0-16.384 3.136-22.624 9.376-12.512 12.512-12.512 32.736 0 45.248l178.656 178.688c12.512 12.512 32.768 12.512 45.28 0 12.48-12.48 12.48-32.736 0-45.248l-178.656-178.688C370.592 315.904 362.4 312.768 354.208 312.768zM449.824 217.184c-8.192 0-16.384 3.136-22.624 9.376-12.512 12.512-12.512 32.736 0 45.248l178.656 178.688c12.512 12.512 32.736 12.512 45.248 0 12.512-12.48 12.512-32.736 0-45.248l-178.656-178.688C466.176 220.32 457.984 217.184 449.824 217.184z"  horiz-adv-x="1024" />

    
    <glyph glyph-name="navijiankang" unicode="&#58881;" d="M136.548175 486.527485 136.548175 578.580321C136.548175 690.517484 226.34127 781.198222 336.889196 781.198222L713.863447 781.198222C824.439643 781.198222 914.20447 690.687592 914.20447 579.023263L914.20447 198.989158C914.20447 87.307605 824.422616-3.185801 713.863447-3.185801L336.889196-3.185801C226.314012-3.185801 136.548175 87.352525 136.548175 199.057687L136.548175 330.745663C136.548175 344.884153 125.086665 356.345663 110.948175 356.345663 96.809685 356.345663 85.348175 344.884153 85.348175 330.745663L85.348175 199.057687C85.348175 59.173291 197.938359-54.385801 336.889196-54.385801L713.863447-54.385801C852.790465-54.385801 965.40447 59.120708 965.40447 198.989158L965.40447 579.023263C965.40447 718.870173 852.811887 832.398222 713.863447 832.398222L336.889196 832.398222C197.950936 832.398222 85.348175 718.682335 85.348175 578.580321L85.348175 486.527485C85.348175 472.388998 96.809685 460.927485 110.948175 460.927485 125.086665 460.927485 136.548175 472.388998 136.548175 486.527485L136.548175 486.527485ZM73.272889 318.62821 240.2365 318.62821C250.265397 318.62821 259.37066 324.484281 263.530469 333.609782L311.700468 439.281786 264.677994 440.291985 382.302885 149.805249C391.232302 127.753136 422.787317 128.743799 430.31587 151.312606L582.922846 608.791891 533.912087 610.261702 607.034894 337.59715C610.035621 326.407859 620.176506 318.62821 631.761175 318.62821L813.082687 318.62821C827.221177 318.62821 838.682687 330.089719 838.682687 344.22821 838.682687 358.3667 827.221177 369.82821 813.082687 369.82821L631.761175 369.82821 656.487458 350.85927 583.364651 623.523823C576.790056 648.03955 542.385778 649.071319 534.353889 624.993634L381.746913 167.514348 429.759895 169.021705 312.135004 459.50844C303.699733 480.340207 274.434676 480.968917 265.11253 460.518639L216.942531 354.846638 240.2365 369.82821 73.272889 369.82821C59.134399 369.82821 47.672889 358.3667 47.672889 344.22821 47.672889 330.089719 59.134399 318.62821 73.272889 318.62821L73.272889 318.62821Z"  horiz-adv-x="1024" />

    
    <glyph glyph-name="renminbi" unicode="&#58911;" d="M825.914526 814.087409 596.294848 421.409005l181.924399 0 0-84.294848L566.346769 337.114157 566.346769 216.204389l211.872478 0 0-86.517469L566.346769 129.68692l0-174.154435L457.636858-44.467515 457.636858 129.68692 239.129262 129.68692 239.129262 216.204389 457.636858 216.204389 457.636858 337.11518 239.129262 337.11518l0 84.294848 186.353268 0L198.084451 814.087409l122.012891 0C426.585655 618.860029 491.293399 495.35925 514.222621 443.60247l2.206248 0c7.387247 21.441335 28.844955 64.707744 64.340377 129.783879L710.553125 814.087409 825.914526 814.087409z"  horiz-adv-x="1024" />

    
    <glyph glyph-name="xiangji1" unicode="&#59083;" d="M512 343.552m-163.84 0a160 160 0 1 0 327.68 0 160 160 0 1 0-327.68 0ZM358.4 828.6208l-92.16-107.8272L102.4 720.7936c-56.32 0-102.4-40.6528-102.4-96.9728l0-582.0416c0-56.32 46.08-102.4 102.4-102.4l819.2 0c56.32 0 102.4 46.08 102.4 102.4L1024 623.8208c0 56.32-46.08 96.9728-102.4 96.9728L757.76 720.7936 665.6 828.6208 358.4 828.6208zM512 87.552c-143.36 0-256 112.64-256 256s112.64 256 256 256 256-112.64 256-256S655.36 87.552 512 87.552z"  horiz-adv-x="1024" />

    
    <glyph glyph-name="tousufankui" unicode="&#58905;" d="M952.061 882.66 905.419 845.365 988.195 762.634 1025.49 809.298ZM334.35 283.374 323.854 189.175 418.053 199.627 938.029 719.58 854.258 803.373ZM950.357 630.266c-16.017 0-29.024-13.03-29.024-29.001l0-529.229c0-65.334-53.185-118.541-118.563-118.541L177.848-46.505c-65.379 0-118.587 53.207-118.587 118.541L59.261 697.002c0 65.333 53.208 118.542 118.587 118.542l536.648 0c15.994 0 29.003 13.03 29.003 29.002 0 16.017-13.03 29.047-29.003 29.047L177.848 873.593c-97.367 0-176.591-79.223-176.591-176.59l0-624.921c0-97.367 79.179-176.591 176.591-176.591L802.77-104.509c97.367 0 176.591 79.224 176.613 176.591L979.383 601.265C979.383 617.281 966.376 630.266 950.357 630.266z"  horiz-adv-x="1026" />

    
    <glyph glyph-name="triangle-up-copy" unicode="&#58891;" d="M62 158.996l450.025 449.923 449.975-449.923h-900z"  horiz-adv-x="1024" />

    
    <glyph glyph-name="yinanbingli" unicode="&#58887;" d="M767.110747 693.452911l-115.571179 0 0 51.889811-75.40641 0c-7.16826 29.862121-34.079166 52.129264-66.109674 52.129264s-58.941414-22.267143-66.109674-52.129264l-75.40641 0 0-51.889811-120.28862 0c-18.86772 0-33.021068-18.868743-33.021068-37.737486l0-584.870658c0-18.868743 18.868743-37.737486 37.737486-37.737486l514.176572 0c18.86772 0 37.736463 18.86772 37.736463 37.737486l0 584.870658C804.84721 674.584168 785.978467 693.452911 767.110747 693.452911zM510.022461 767.958812c21.220301 0 38.4845-17.265222 38.4845-38.485523s-17.264199-38.4845-38.4845-38.4845-38.485523 17.264199-38.485523 38.4845S488.80216 767.958812 510.022461 767.958812zM401.526421 707.604212l44.125987 0c9.128915-26.795273 34.526351-46.12962 64.370053-46.12962s55.240115 19.335371 64.370053 46.12962l44.125987 0 0-70.75753-216.993103 0L401.525398 707.604212zM762.392282 103.865835c0-14.151301-14.151301-28.303626-28.30158-28.303626l-452.852902 0c-14.152325 0-28.303626 14.152325-28.303626 28.303626L252.934175 622.695381c0 14.151301 14.151301 28.303626 28.303626 28.303626l87.267553 0 0-47.172369 283.033191 0 0 51.889811 82.552158 0c14.150278 0 28.30158-14.152325 28.30158-28.303626L762.392282 103.865835zM475.715097 358.640426 544.328801 358.640426 544.328801 430.471404 616.160803 430.471404 616.160803 499.086132 544.328801 499.086132 544.328801 570.91711 475.715097 570.91711 475.715097 499.086132 403.885142 499.086132 403.885142 430.471404 475.715097 430.471404ZM635.029546 301.987125l-250.01417 0c-9.431813 0-18.86772-9.43386-18.86772-18.86772l0-4.717442c0-9.43386 9.43693-18.86772 18.86772-18.86772l245.294682 0c9.43693 0 18.869766 4.716418 23.588231 18.86772l0 4.717442C653.898289 292.554288 644.463406 301.987125 635.029546 301.987125zM635.029546 235.947036l-250.01417 0c-9.431813 0-18.86772-9.434883-18.86772-18.868743l0-4.716418c0-9.434883 9.43693-18.868743 18.86772-18.868743l245.294682 0c9.43693 0 18.869766 4.717442 23.588231 18.868743l0 4.716418C653.898289 226.513176 644.463406 235.947036 635.029546 235.947036zM635.029546 165.189506l-250.01417 0c-9.431813 0-18.86772-9.434883-18.86772-18.868743l0-4.716418c0-9.434883 9.43693-14.151301 18.86772-14.151301l245.294682 0c9.43693 0 18.869766 4.716418 23.588231 14.151301l0 4.716418C653.898289 155.754622 644.463406 165.189506 635.029546 165.189506z"  horiz-adv-x="1024" />

    
    <glyph glyph-name="ren" unicode="&#58902;" d="M815.399031-61.806415 207.686133-61.806415c-47.621601 0-86.364997 38.440497-86.364997 85.691661 0 62.774719 27.812439 126.421294 80.429821 184.061063 36.45426 39.931454 82.176604 73.987085 131.733277 98.513688-21.889543 19.177781-40.597627 41.761126-55.160297 66.768683-23.203468 39.844473-35.467793 85.316108-35.467793 131.497916l0 60.109006c0 71.106478 27.983331 137.939629 78.795601 188.190103 50.735521 50.17475 118.173446 77.807087 189.891861 77.807087 71.710228 0 139.139967-27.632337 189.869349-77.80811 50.804083-50.249451 78.783321-117.082602 78.783321-188.188056l0-60.109006c0-46.182832-12.260232-91.65242-35.45449-131.494846-14.559601-25.007557-33.262568-47.590901-55.146994-66.769706 49.552579-24.526603 95.279017-58.583257 131.732254-98.514711 52.622498-57.641815 80.43596-121.28839 80.43596-184.061063C901.764028-23.365918 863.020632-61.806415 815.399031-61.806415zM511.543605 779.666458c-119.94172 0-217.522152-96.372931-217.522152-214.830857l0-60.109006c0-74.477248 38.789445-142.609998 103.762225-182.25595 8.371668-5.108345 13.08604-14.553461 12.136412-24.314779s-7.395434-18.120706-16.594957-21.520129c-57.149605-21.118993-113.203248-58.728566-153.785525-103.184057-30.589692-33.509185-67.052139-86.657662-67.052139-149.565411 0-19.037589 15.790638-34.526351 35.199687-34.526351l607.712899 0c19.409049 0 35.198663 15.488763 35.198663 34.526351 0 62.905702-36.46654 116.055203-67.057255 149.564387-40.584324 44.455491-96.635921 82.065064-153.781432 103.186104-9.197476 3.3984-15.643282 11.757788-16.593933 21.518083-0.949628 9.760295 3.764744 19.205411 12.134365 24.314779 64.953338 39.642882 103.730503 107.776655 103.730503 182.256974l0 60.109006C729.030965 683.293527 631.465882 779.666458 511.543605 779.666458z"  horiz-adv-x="1024" />

    
    <glyph glyph-name="caigoutonggerenbangaobaozhencaigou09" unicode="&#58952;" d="M986.25 854.75c-6.25 0-63.75 2.5-108.75-40C842.5 783.5 825 736 825 676c0-116.25 0-423.75 0-423.75 0-61.25-50-112.5-111.25-112.5L196.25 139.75c-61.25 0-111.25 50-111.25 112.5L85 507.25c0 61.25 50 112.5 111.25 112.5l471.25 0c22.5 0 40 17.5 40 40s-17.5 40-40 40L196.25 699.75c-106.25 0-192.5-86.25-192.5-192.5l0-255c0-106.25 86.25-192.5 192.5-192.5l517.5 0c106.25 0 192.5 86.25 192.5 192.5 0 0 0 307.5 0 423.75 0 37.5 8.75 63.75 25 80 20 20 48.75 18.75 48.75 18.75 22.5-1.25 41.25 15 42.5 37.5C1025 834.75 1008.75 853.5 986.25 854.75zM668.75 513.5 242.5 513.5c-22.5 0-40-17.5-40-40 0-22.5 17.5-40 40-40l426.25 0c22.5 0 40 17.5 40 40C708.75 496 691.25 513.5 668.75 513.5zM668.75 327.25 242.5 327.25c-22.5 0-40-17.5-40-40 0-22.5 17.5-40 40-40l426.25 0c22.5 0 40 17.5 40 40C708.75 309.75 691.25 327.25 668.75 327.25zM806.25-29c0-32.5 26.25-58.75 58.75-58.75s58.75 26.25 58.75 58.75-26.25 58.75-58.75 58.75S806.25 3.5 806.25-29L806.25-29zM0-29c0-32.5 26.25-58.75 58.75-58.75s58.75 26.25 58.75 58.75-26.25 58.75-58.75 58.75S0 3.5 0-29z"  horiz-adv-x="1024" />

    
    <glyph glyph-name="wodedingdan" unicode="&#58999;" d="M796.448-128 227.552-128c-94.112 0-170.656 76.544-170.656 170.656L56.896 725.344C56.896 819.456 133.44 896 227.552 896L256 896c15.712 0 28.448-12.736 28.448-28.448C284.448 851.84 271.712 839.104 256 839.104L227.552 839.104c-62.752 0-113.76-51.04-113.76-113.792l0-682.656c0-62.752 51.008-113.76 113.76-113.76l568.896 0c62.752 0 113.76 51.008 113.76 113.76L910.208 725.344c0 62.752-51.008 113.792-113.76 113.792L768 839.136c-15.712 0-28.448 12.736-28.448 28.448C739.552 883.264 752.288 896 768 896l28.448 0c94.112 0 170.656-76.544 170.656-170.656l0-682.656C967.104-51.456 890.56-128 796.448-128L796.448-128M796.448-128 796.448-128zM647.104 839.104l-270.208 0c-15.712 0-28.448 12.736-28.448 28.448C348.448 883.264 361.152 896 376.896 896l270.208 0c15.712 0 28.448-12.736 28.448-28.448C675.552 851.84 662.816 839.104 647.104 839.104L647.104 839.104M647.104 839.104 647.104 839.104zM800 541.632 224 541.632c-15.744 0-28.448 12.736-28.448 28.448 0 15.712 12.736 28.448 28.448 28.448l576 0c15.712 0 28.448-12.736 28.448-28.448C828.448 554.368 815.712 541.632 800 541.632L800 541.632M800 541.632 800 541.632zM800 355.552 224 355.552c-15.744 0-28.448 12.736-28.448 28.448 0 15.712 12.736 28.448 28.448 28.448l576 0c15.712 0 28.448-12.736 28.448-28.448C828.448 368.288 815.712 355.552 800 355.552L800 355.552M800 355.552 800 355.552zM800 169.472 224 169.472c-15.744 0-28.448 12.736-28.448 28.448S208.288 226.368 224 226.368l576 0c15.712 0 28.448-12.736 28.448-28.448C828.448 182.208 815.712 169.472 800 169.472L800 169.472M800 169.472 800 169.472z"  horiz-adv-x="1024" />

    
    <glyph glyph-name="jiameng1" unicode="&#59059;" d="M607.250855-10.264588l-16.958682 16.619578-72.550716-71.418039 16.55199-16.232697c17.084535-16.753588 47.337014-14.453276 67.449011 5.130837C621.855621-56.578465 624.328397-27.024003 607.250855-10.264588L607.250855-10.264588 607.250855-10.264588zM916.646289 296.704682l-0.336773 0.346096L798.547302 418.834458l0.184118 0.170135L670.609646 549.530391l-90.347252-81.923263c-59.879191-56.385607-136.129749-61.044496-143.45136-61.362624-3.544857-0.261028-7.173617-0.388047-10.787227-0.388047-90.343756 0-170.961877 80.977035-174.344757 84.417015l-12.511878 12.733286 12.511878 12.732121c7.214402 7.335594 132.267929 134.522794 233.521269 232.011034-21.751581 20.841478-37.388807 35.420607-46.544607 43.387796-27.468566 23.895742-84.812054 53.443212-156.042479 58.076464-53.760175 3.502906-132.237631-6.769256-200.797178-75.550211-95.831176-96.135321-107.717286-209.394797-34.390477-327.535735 1.108205-1.780586 2.026465-3.262854 2.713995-4.417671 17.100849-28.717773 74.049298-80.169479 94.556333-97.570977l-5.400023-6.089883 72.881662 71.754813c15.411157 15.167608 35.947325 23.521679 57.823593 23.521679 21.650199 0 42.027885-8.209573 57.402918-23.120814 15.444951-14.989317 23.991297-34.957981 24.071703-56.227125 0.004661-3.72548-0.241218-7.417165-0.751622-11.045925 5.947716 1.319125 12.066732 2.024135 18.301113 2.024135 21.656026 0 42.0442-8.209573 57.414571-23.127806 15.444951-14.978829 23.991297-34.949824 24.065876-56.227125 0.016314-2.985511-0.158481-5.946551-0.474279-8.880788 4.973521 0.919426 10.075226 1.405358 15.256171 1.405358 21.653695 0 42.040704-8.214234 57.404083-23.12431 18.361709-17.817511 26.187896-42.118779 23.498373-65.487803 5.090052 0.963707 10.322271 1.460127 15.625573 1.460127 21.650199 0 42.038373-8.20025 57.399422-23.114987 31.487703-30.556624 32.041223-80.19395 1.561509-111.43927l16.289797-15.961181c7.94971-7.808708 19.1681-11.689173 31.576266-10.935221 13.319435 0.80173 26.292774 6.735462 36.531142 16.698819 10.233707 9.970348 16.344566 22.619733 17.223206 35.632692 0.811052 12.128493-3.119521 23.103334-11.063404 30.901554l-0.20859 0.202763L560.807629 245.096825l26.627216 25.958331 152.651442-149.608831c7.94971-7.801716 19.166934-11.682181 31.576266-10.937551 13.319435 0.80173 26.282286 6.737793 36.519489 16.701149 20.473241 19.93254 23.236179 49.786485 6.166793 66.530751l-149.368778 146.190992 11.479418 11.20091 14.964845 15.471753 154.301514-142.62982c17.023939-16.699984 47.519967-14.076883 68.113235 5.795061C931.846526 248.61488 933.221585 280.447513 916.646289 296.704682L916.646289 296.704682 916.646289 296.704682zM757.325807 860.498987c-66.939773 0-122.464219-26.977973-149.674088-50.066158-73.37109-62.271562-263.70383-254.16581-315.614666-306.735043 24.300102-20.757576 78.616128-61.087612 133.986754-61.087612 2.773426 0 5.552678 0.101382 8.246863 0.304145l0.815713 0.048943c0.624603 0.01981 68.239088 3.149819 119.196704 51.211653l0.272681 0.251706L672.149013 601.061338l231.499465-235.843722c20.555978 21.484726 58.740688 61.722703 73.034317 78.852685 19.561973 23.473901 43.603378 72.220935 46.946637 132.342509 2.778087 50.021877-8.725803 125.108296-79.297831 198.740415-54.290389 56.62799-117.208694 85.345763-187.001133 85.345763L757.325807 860.498987 757.325807 860.498987zM592.714842 121.774941c-8.270169 8.027785-19.24501 12.450117-30.903885 12.450117-11.785893 0-22.841141-4.499242-31.140442-12.67036l-114.807001-113.028746c-8.266673-8.128001-12.790386-18.914063-12.746105-30.365514 0.044282-11.457277 4.648401-22.210711 12.962851-30.269959 8.271334-8.040604 19.252002-12.454778 30.908546-12.454778 11.775406 0 22.830653 4.502738 31.129954 12.666864l114.82215 113.028746c17.041418 16.778059 16.942367 43.983267-0.223739 60.643631L592.714842 121.774941 592.714842 121.774941zM496.191474 208.917605c-8.271334 8.025455-19.256663 12.450117-30.908546 12.450117-11.776571 0-22.83648-4.499242-31.142773-12.665699l-114.805836-113.028746c-8.25502-8.136159-12.783394-18.912898-12.739113-30.371341 0.045447-11.454947 4.648401-22.199058 12.964017-30.275786 8.27483-8.027785 19.250836-12.448952 30.907381-12.448952 11.782398 0 22.835314 4.498077 31.136946 12.664533L496.419874 148.270478c17.041418 16.781555 16.943533 43.986763-0.227234 60.642465L496.192639 208.917605 496.191474 208.917605zM313.86904 353.844241c-0.034959 11.457277-4.642575 22.199058-12.95819 30.276951-8.271334 8.02662-19.252002 12.447787-30.909712 12.447787-11.781232 0-22.839975-4.496911-31.13112-12.664533l-114.819819-113.028746c-8.25735-8.132663-12.779898-18.908237-12.735617-30.373671 0.038455-11.447955 4.641409-22.201388 12.95819-30.269959 8.275995-8.025455 19.250836-12.446621 30.914373-12.446621 11.77424 0 22.83881 4.491085 31.129954 12.664533l114.820985 113.026415c8.256185 8.130332 12.769411 18.914063 12.72979 30.371341L313.867874 353.844241 313.86904 353.844241zM412.897813 265.473346c-0.038455 11.452616-4.641409 22.202554-12.95819 30.276951-8.275995 8.027785-19.249671 12.443125-30.907381 12.443125-11.781232 0-22.841141-4.488754-31.136946-12.662203l-114.813993-113.029911c-8.25735-8.130332-12.782229-18.912898-12.737948-30.364349 0.03962-11.453782 4.648401-22.201388 12.962851-30.280447 8.269003-8.025455 19.243845-12.447787 30.90505-12.447787 11.781232 0 22.839975 4.494581 31.13112 12.67269l114.82215 113.021754C408.418381 243.235833 412.942094 254.014903 412.897813 265.473346L412.897813 265.473346 412.897813 265.473346z"  horiz-adv-x="1024" />

    
    <glyph glyph-name="chuzhoukangshuai" unicode="&#59006;" d="M128.600937 387.240811M774.671445 340.641493l5.449106-1.24127 0 0L774.671445 340.641493M780.119527 339.400223c0.122797 0.378623 0.237407 0.809435 0.375553 1.24127l-33.634028 7.843642 33.634028-7.843642c5.942339 23.624047 10.210549 46.484707 13.021571 68.645426 15.791661 123.390261-16.346293 225.410819-76.410274 298.622238C657.295154 781.062248 571.131749 825.093067 481.56892 838.17706c-4.519943 0.633427-9.021467 1.198292-13.419637 1.695618-113.777323 13.777795-210.165604-18.72548-277.753955-81.926918-67.824735-63.061244-107.337657-153.74971-120.245641-255.772314-3.184529-25.299199-4.700045-51.356668-4.626367-77.972862 0.429789-119.933533 26.040073-218.315214 75.711356-298.490232 49.669236-80.157621 122.698506-140.79977 212.996069-187.448206l10.978029-5.641487 12.147668 2.24718C550.899962-32.290171 722.994482 115.367797 780.119527 339.400223l-5.449106 1.24127L780.119527 339.400223 780.119527 339.400223M738.100528 349.098095c-53.109592-212.500788-214.269062-350.708524-366.766244-384.852158-83.543741 45.280276-146.736992 100.215446-190.641945 170.927951-45.837978 74.030064-71.267137 166.837796-71.837118 288.032042-0.062422 26.051329 1.375324 51.40681 4.51278 75.846432 12.404518 98.758258 50.474578 181.425026 108.476597 235.095389 58.187237 53.43091 135.598304 81.237209 240.621243 69.335135 4.071735-0.438998 8.137331-1.00591 12.204973-1.622964 80.114642-11.646248 156.141176-50.79078 208.43724-114.798583 52.170197-64.069201 82.231863-153.25136 67.509557-271.499507C747.992829 394.383488 743.78397 372.223792 738.100528 349.098095L738.100528 349.098095M306.891576 207.75495c-77.090772 23.046902-106.101503 108.461247-107.218954 109.596094l0 0-4.513804 12.401448 11.267625 6.961552c110.363573 67.318198 124.071783 158.820192 125.835963 173.162852l0 0c0.177032 1.562589 0.177032 2.001587 0.177032 2.001587l0 0c0.695848 8.897647 8.460696 15.536858 17.296945 14.909571l0 0c8.885368-0.690732 15.524578-8.394181 14.845103-17.352203l0 0c0-0.128937-0.066515-1.248434-0.321318-3.1262l0 0c-1.939165-19.10615-18.596544-116.298749-129.136126-189.585893l0 0c3.501754-7.202029 8.959046-17.08205 16.148795-27.426653l0 0c14.529925-20.982894 36.406165-42.846854 64.267722-50.553373l0 0c8.636704-2.424212 13.586436-11.263531 11.142781-19.846l0 0c-2.13257-7.704472-9.523911-12.529361-17.155728-11.647271l0 0C308.587194 207.312882 307.774689 207.50117 306.891576 207.75495L306.891576 207.75495 306.891576 207.75495M537.117051 441.049321c-53.166897 0.430812-84.488253 36.950564-85.73771 38.139645l0 0 0 0c-5.520737 6.261611-4.891404 15.841803 1.318018 21.3564l0 0c6.332219 5.508457 15.900132 4.882194 21.476127-1.442862l0 0 0.067538-0.050142 0 0c0.061398-0.132006 0.3776-0.38988 0.678452-0.696872l0 0c0.630357-0.688685 1.766226-1.816369 3.202948-3.076058l0 0c2.945075-2.691295 7.266497-6.261611 12.899798-9.828856l0 0c11.267625-7.142677 27.120684-14.152325 46.095851-14.08581l0 0c18.913768 0.062422 41.837874 6.577812 69.143777 29.371958l0 0c6.443759 5.448082 15.963577 4.577249 21.36254-1.816369l0 0c5.385661-6.393617 4.564969-15.974833-1.825578-21.293979l0 0c-31.442106-26.554796-62.068637-36.644595-88.431052-36.577057l0 0C537.305339 441.049321 537.174356 441.049321 537.117051 441.049321L537.117051 441.049321 537.117051 441.049321M537.117051 441.049321M605.304036-68.895881c0 0 231.798297 114.758674 312.854381 552.590464C918.158417 483.694583 878.782617 4.249023 605.304036-68.895881M921.807526 551.642115l-50.327222-91.185792 46.679136 23.236214 39.309284-29.368888L921.807526 551.642115z"  horiz-adv-x="1024" />

    
    <glyph glyph-name="ictabbarapplynor-copy" unicode="&#58976;" d="M928-64h-832c-8.667 0-16.167-3.167-22.5-9.5-6.333-6.333-9.5-13.833-9.5-22.5 0-8.667 3.167-16.167 9.5-22.5 6.333-6.333 13.833-9.5 22.5-9.5h832c8.667 0 16.167 3.167 22.5 9.5 6.333 6.333 9.5 13.833 9.5 22.5 0 8.667-3.167 16.167-9.5 22.5-6.333 6.333-13.833 9.5-22.5 9.5v0zM896 896h-768c-35.334 0-65.5-12.5-90.5-37.5-25-25-37.5-55.166-37.5-90.5v-640c0-35.334 12.5-65.5 37.5-90.5 25-25 55.166-37.5 90.5-37.5h768c35.334 0 65.5 12.5 90.5 37.5 25 25 37.5 55.166 37.5 90.5v640c0 35.334-12.5 65.5-37.5 90.5-25 25-55.166 37.5-90.5 37.5v0zM960 128c0-17.333-6.333-32.333-19-45-12.667-12.667-27.667-19-45-19h-768c-17.333 0-32.333 6.333-45 19-12.667 12.667-19 27.667-19 45v640c0 17.333 6.333 32.333 19 45 12.667 12.667 27.667 19 45 19h768c17.333 0 32.333-6.333 45-19 12.667-12.667 19-27.667 19-45v-640zM227.048 700.952c-8.667 0-16.167-3.167-22.5-9.5-6.333-6.333-9.5-13.833-9.5-22.5 0-8.667 3.167-16.167 9.5-22.5 6.333-6.333 13.833-9.5 22.5-9.5h588.19c8.667 0 16.167 3.167 22.5 9.5 6.333 6.333 9.5 13.833 9.5 22.5 0 8.667-3.167 16.167-9.5 22.5-6.333 6.333-13.833 9.5-22.5 9.5h-588.19zM227.048 505.905c-8.667 0-16.167-3.167-22.5-9.5-6.333-6.333-9.5-13.833-9.5-22.5 0-8.667 3.167-16.167 9.5-22.5 6.333-6.333 13.833-9.5 22.5-9.5h588.19c8.667 0 16.167 3.167 22.5 9.5 6.333 6.333 9.5 13.833 9.5 22.5 0 8.667-3.167 16.167-9.5 22.5-6.333 6.333-13.833 9.5-22.5 9.5h-588.19zM227.048 310.857c-8.667 0-16.167-3.167-22.5-9.5-6.333-6.333-9.5-13.833-9.5-22.5 0-8.667 3.167-16.167 9.5-22.5 6.333-6.333 13.833-9.5 22.5-9.5h588.19c8.667 0 16.167 3.167 22.5 9.5 6.333 6.333 9.5 13.833 9.5 22.5 0 8.667-3.167 16.167-9.5 22.5-6.333 6.333-13.833 9.5-22.5 9.5h-588.19z"  horiz-adv-x="1024" />

    
    <glyph glyph-name="geren" unicode="&#59013;" d="M662.956595 374.514975c10.350742 7.557116 20.204158 15.931854 29.468149 25.106818 48.328705 47.867194 74.942853 111.542422 74.942853 179.293479 0 67.751057-26.615171 131.425262-74.942853 179.292456-48.216141 47.7577-112.292506 74.058716-180.425256 74.058716S379.790374 805.966451 331.573209 758.20875c-48.327682-47.867194-74.942853-111.541399-74.942853-179.292456 0-67.751057 26.615171-131.425262 74.942853-179.293479 9.82067-9.726525 20.308535-18.547425 31.345915-26.453489-4.879124-1.587148-9.740852-3.27765-14.576997-5.084808 0 0-223.677339-80.670298-260.58697-334.944492-2.385327-16.440437-6.15621-58.083883-3.664459-66.355267 0 0 4.320399-26.503631 31.023574-30.163997 13.262048-1.817392 37.406958 3.533476 42.360783 32.749892 0 0-16.269545 253.389034 257.592776 343.917864 0 0 30.331819 10.577916 77.153194 13.026688 6.547113-0.494257 13.141298-0.751107 19.776416-0.751107 6.477528 0 12.917194 0.240477 19.310811 0.712221 60.968583-3.316535 138.199549-22.88829 212.19789-85.09098 0 0 125.371382-93.000114 123.533524-272.774547 0 0 3.671623-29.706579 34.583656-32.03767 13.373589-1.006933 33.248242 4.670369 38.939871 32.353872C940.564217-31.271982 956.824553 253.469108 662.956595 374.514975zM511.998465 745.245508c92.827175 0 168.348196-74.615395 168.348196-166.330236s-75.521021-166.330236-168.348196-166.330236c-92.826152 0-168.346149 74.615395-168.346149 166.330236S419.172313 745.245508 511.998465 745.245508z"  horiz-adv-x="1024" />

    
    <glyph glyph-name="shouye" unicode="&#59012;" d="M224.06261-128.000029c-36.995939 0-80.301264 22.226243-80.301264 85.033303L143.761345 310.072047 70.486442 310.072047c-13.335746 0-28.392233 8.890497-40.294027 23.660194C17.71704 349.218912 10.834074 369.294229 10.834074 390.08652l0 9.320683L482.604001 887.667568C488.053016 893.116583 495.939747 895.984485 505.83401 895.984485c11.184819 0 19.64513-2.867903 25.237541-8.460312 1.720741-1.720741 426.743861-434.343802 475.21141-483.671722l6.596175-6.739571 0-9.320683c0-21.365872-3.584878-37.85631-11.041424-50.188291-9.750868-16.347043-26.241306-25.380935-46.316622-25.380935l-71.123977 0-1.147161-358.200997-0.57358-2.581112c-0.430185-2.007532-5.018829-19.931921-17.207413-38.286496-17.924389-26.958282-43.018534-41.154397-72.701323-41.154397L618.399175-128.000029l0 22.943218c0.143395 90.052132 0.286791 325.937096 0 336.261544-0.143395 5.30562-5.449014 19.07155-11.471609 19.07155L417.789409 250.276284c-4.158458 0-12.61877-7.886732-12.61877-18.354575l0-359.921738L229.655019-128.000029C228.364464-127.856633 226.500327-128.000029 224.06261-128.000029M72.924159 355.958483l116.867018 0 0-398.925209c0-9.750868 0-39.146866 34.414828-39.146866 1.147161 0 1.864137 0 2.150926 0l1.433951 0.143395 1.003766 0L359.284203-81.970196 359.284203 232.208499c0 34.128037 27.388467 64.241012 58.505207 64.241012l189.138156 0c18.211179 0 34.271433-9.320683 45.169462-26.241306 8.460312-13.19235 11.7584-27.962047 12.045189-37.28273 0.286791-11.328214 0.143395-240.043422 0-314.752277l128.338627 0c29.682788 0 41.871374 32.980876 44.739276 42.158163l1.147161 398.064839 116.867018 0c5.162224 0 6.022595 1.433951 7.026361 3.011297 1.290556 2.294322 3.441483 7.169755 4.158458 17.494204-53.629772 54.490143-401.362926 408.532682-459.724737 467.898259L57.437486 381.626208C60.018598 366.282932 69.482676 358.10941 72.924159 355.958483"  horiz-adv-x="1024" />

    
    <glyph glyph-name="fenlei" unicode="&#58904;" d="M349.3376 819.2 106.496 819.2C47.744 819.2 7.9104 757.7088 7.9104 700.288l0-217.6C7.9104 425.2416 47.744 384 106.496 384l242.816 0c58.752 0 119.3728 41.2416 119.3728 98.688l0 217.6C468.7104 757.7088 408.064 819.2 349.3376 819.2zM417.5104 482.688c0-29.2096-37.6576-47.488-68.1728-47.488L106.496 435.2c-30.4896 0-47.4112 18.3296-47.4112 47.488l0 217.6C59.1104 729.472 76.0064 768 106.496 768l242.816 0c30.5152 0 68.1728-38.528 68.1728-67.712L417.4848 482.688 417.5104 482.688zM349.3376 332.8 106.496 332.8c-58.752 0-98.6112-70.6304-98.6112-128.0512l0-217.5744C7.9104-70.2464 47.744-102.4 106.496-102.4l242.816 0c58.752 0 119.3728 32.1536 119.3728 89.5744l0 217.5744C468.7104 262.1696 408.064 332.8 349.3376 332.8zM417.5104-12.8256c0-29.184-37.6576-38.3744-68.1728-38.3744L106.496-51.2c-30.4896 0-47.4112 9.1904-47.4112 38.3744l0 217.5744C59.1104 233.9584 76.0064 281.6 106.496 281.6l242.816 0c30.5152 0 68.1728-47.6416 68.1728-76.8512L417.4848-12.8256 417.5104-12.8256zM890.5472 332.8l-242.7648 0c-58.752 0-102.272-70.6304-102.272-128.0512l0-217.5744c0-57.4208 43.52-89.5744 102.272-89.5744l242.7648 0c58.752 0 115.7376 32.1536 115.7376 89.5744l0 217.5744C1006.3104 262.1696 949.2992 332.8 890.5472 332.8zM955.1104-12.8256c0-29.184-34.0224-38.3744-64.5376-38.3744l-242.7648 0c-30.5152 0-51.072 9.1904-51.072 38.3744l0 217.5744c0 29.2096 20.5568 76.8512 51.072 76.8512l242.7648 0c30.5152 0 64.5376-47.6416 64.5376-76.8512L955.1104-12.8256zM745.7536 327.168c28.2624 0 54.9376 10.7264 75.0592 30.208l171.6992 166.5792c20.3008 19.712 31.488 45.952 31.488 73.9584 0 27.9552-11.2128 54.1952-31.488 73.8816l-158.5408 153.856c-20.096 19.5328-46.7456 30.2336-75.0848 30.2336s-54.9632-10.7008-75.0848-30.2336l-171.6992-166.5792c-20.3008-19.712-31.4624-45.9264-31.4624-73.9072 0-27.9552 11.1872-54.1952 31.4624-73.9328l158.592-153.856C690.7904 337.8944 717.44 327.168 745.7536 327.168zM531.8144 585.1392c0 13.952 5.6832 27.1872 15.9488 37.1456l171.6992 166.5536c10.496 10.1632 24.4992 15.7952 39.424 15.7952s28.9024-5.6064 39.3984-15.7952l158.5408-153.856C967.1424 625.0496 972.8 611.84 972.8 597.8624c0-13.952-5.6576-27.1872-15.9488-37.1456l-171.6992-166.6048c-20.9408-20.352-57.8048-20.352-78.7968 0l-158.5664 153.8816C537.4976 557.952 531.8144 571.1616 531.8144 585.1392z"  horiz-adv-x="1024" />

    
    <glyph glyph-name="dingdan-copy-copy" unicode="&#58882;" d="M818.405 842.865h-626.508c-87.776 0-87.776-87.402-87.776-87.402v-742.923c0 0 0-87.402 89.116-87.402h518.491l191.733 152.955v677.372c0 0-1.341 87.402-85.054 87.402v0zM860.252 99.94l-172.83-131.105h-475.283c-64.812 0-64.812 65.552-64.812 65.552v699.221c0 0 0 65.552 64.812 65.552h583.302c64.812 0 64.812-65.552 64.812-65.552v-633.67zM255.348 362.15h496.886v-43.702h-496.886v43.702zM255.348 536.955h496.886v-43.702h-496.886v43.702zM255.348 711.76h237.641v-43.702h-237.641v43.702zM817.045 209.196h-194.435v-196.656h43.207v152.955h151.227v43.702z"  horiz-adv-x="1024" />

    
    <glyph glyph-name="gerenxinxi" unicode="&#58928;" d="M776.61184 602.56256c0 78.32064-30.49984 151.95648-85.88288 207.33952C635.35104 865.28512 561.7152 895.78496 483.38944 895.78496S331.43296 865.28512 276.04992 809.90208 190.16704 680.8832 190.16704 602.55744c0-60.71296 18.40128-118.97344 53.21216-168.48384a30.73536 30.73536 0 1 1 50.28352 35.3536c-27.4944 39.10144-42.02496 85.13536-42.02496 133.13024 0 127.7952 103.96672 231.7568 231.7568 231.7568s231.7568-103.96672 231.7568-231.7568-103.96672-231.7568-231.7568-231.7568c-63.14496 0-124.42112-12.37504-182.1184-36.77696-55.71584-23.56736-105.74336-57.2928-148.70528-100.25472-42.9568-42.9568-76.68736-92.98944-100.2496-148.70528-24.40704-57.69728-36.77696-118.97344-36.77696-182.1184a30.73024 30.73024 0 1 1 61.46048 0c0 224.08192 182.30784 406.38976 406.38976 406.38976 78.32576 0 151.95648 30.49984 207.33952 85.88288 55.37792 55.38304 85.87776 129.01888 85.87776 207.34464zM538.56768 218.99264a30.73024 30.73024 0 0 1 30.73024-30.73024h408.42752a30.73024 30.73024 0 1 1 0 61.46048h-408.42752a30.73024 30.73024 0 0 1-30.73024-30.73024zM977.73056 93.21984h-408.42752a30.73024 30.73024 0 1 1 0-61.46048h408.42752a30.73024 30.73024 0 1 1 0 61.46048zM977.73056-63.2832h-408.42752a30.73024 30.73024 0 1 1 0-61.46048h408.42752a30.73024 30.73024 0 1 1 0 61.46048z"  horiz-adv-x="1024" />

    
    <glyph glyph-name="yuanquan" unicode="&#58978;" d="M498.036364-97.745455c-269.963636 0-488.727273 218.763636-488.727273 488.727273s218.763636 488.727273 488.727273 488.727273 488.727273-218.763636 488.727272-488.727273-218.763636-488.727273-488.727272-488.727273z m0 930.909091c-244.363636 0-442.181818-197.818182-442.181819-442.181818s197.818182-442.181818 442.181819-442.181818 442.181818 197.818182 442.181818 442.181818-197.818182 442.181818-442.181818 442.181818z"  horiz-adv-x="1024" />

    
    <glyph glyph-name="wodeyouhuiquan" unicode="&#58951;" d="M933.376-29.696H95.744c-33.792 0-61.44 27.648-61.44 61.44v260.608c0 10.752 8.192 19.456 18.944 20.48 41.984 3.072 74.752 37.888 74.752 79.872s-32.768 77.312-74.752 79.872c-10.752 0.512-18.944 9.728-18.944 20.48V730.624c0 33.792 27.648 61.44 61.44 61.44H153.6c11.264 0 20.48-9.216 20.48-20.48s-9.216-20.48-20.48-20.48H95.744c-11.264 0-20.48-9.216-20.48-20.48v-220.16C129.024 498.176 168.96 449.536 168.96 392.704s-39.936-105.472-93.696-117.76v-242.688c0-11.264 9.216-20.48 20.48-20.48h838.144c11.264 0 20.48 9.216 20.48 20.48v241.664c-57.344 9.728-100.864 59.392-100.864 119.296s43.52 109.568 100.864 119.296V730.624c0 11.264-9.216 20.48-20.48 20.48H284.16c-11.264 0-20.48 9.216-20.48 20.48s9.216 20.48 20.48 20.48h649.216c33.792 0 61.44-27.648 61.44-61.44v-237.056c0-11.264-9.216-20.48-20.48-20.48-44.032 0-80.384-35.84-80.384-80.384 0-44.032 35.84-80.384 80.384-80.384 11.264 0 20.48-9.216 20.48-20.48v-260.096c0-33.792-27.136-61.44-61.44-61.44zM519.68 408.576c-5.12 0-10.24 2.048-14.336 6.144L349.696 569.856c-8.192 8.192-8.192 20.992 0 29.184 8.192 8.192 20.992 8.192 29.184 0l140.8-140.8 142.336 142.336c8.192 8.192 20.992 8.192 29.184 0 8.192-8.192 8.192-20.992 0-29.184L534.016 414.72c-4.096-4.096-9.216-6.144-14.336-6.144zM732.16 404.48H313.856c-11.264 0-20.48 9.216-20.48 20.48s9.216 20.48 20.48 20.48H732.16c11.264 0 20.48-9.216 20.48-20.48s-9.216-20.48-20.48-20.48zM732.16 269.824H313.856c-11.264 0-20.48 9.216-20.48 20.48s9.216 20.48 20.48 20.48H732.16c11.264 0 20.48-9.216 20.48-20.48s-9.216-20.48-20.48-20.48zM523.264 119.296c-11.264 0-20.48 9.216-20.48 20.48V440.32c0 11.264 9.216 20.48 20.48 20.48s20.48-9.216 20.48-20.48v-300.544c0-11.264-9.216-20.48-20.48-20.48z"  horiz-adv-x="1024" />

    
    <glyph glyph-name="jifenmingxi-copy" unicode="&#58883;" d="M771.39 701.781c-31.232 75.776-160.256 132.608-326.144 132.608s-313.344-57.344-344.576-132.608c-4.096-10.24-6.656-20.992-6.656-32.256v-481.28c0-15.872 4.608-30.72 13.312-45.056 40.448-68.608 170.496-118.784 325.12-119.808v20.48c-176.128 1.024-317.952 65.024-317.952 144.384v193.024c19.968-26.624 53.76-50.176 97.28-68.096 8.704-3.584 17.92-7.168 27.136-10.24 54.784-18.432 121.344-29.696 193.536-30.208v20.48c-58.368 0.512-112.64 7.68-159.232 19.968-11.776 3.072-23.040 6.656-33.792 10.24-75.776 26.624-124.928 67.584-124.928 114.176v175.616c16.896-22.528 44.032-43.008 78.336-59.904 7.68-3.584 15.36-7.168 23.552-10.24 59.392-24.064 136.192-38.4 219.648-38.4s160.256 14.336 219.648 38.4c8.192 3.072 15.872 6.656 23.552 10.24 34.304 16.896 61.44 36.864 78.336 59.904v-119.296l0.512-0.512h19.968v176.128c0 11.264-2.56 22.016-6.656 32.256zM655.678 564.053c-8.704-3.584-17.92-7.168-27.648-10.24-53.76-17.92-119.808-28.672-192-28.672-71.68 0-138.24 10.752-192 28.672-9.728 3.072-18.944 6.656-27.648 10.24-62.976 26.624-101.888 64-101.888 105.472 0 79.872 153.088 144.384 330.752 144.384 177.664 0 312.32-64.512 312.32-144.384 0-41.472-39.424-78.848-101.888-105.472zM932.158 365.909c0 2.56-0.512 5.632-0.512 8.192v-16.384c0 2.56 0.512 5.12 0.512 8.192zM931.134 374.101v-16.384c0.512 2.56 0.512 5.632 0.512 8.192s0 5.12-0.512 8.192zM931.646 240.469c0 2.048 0 4.096-0.512 6.144v-11.776c0.512 2.048 0.512 3.584 0.512 5.632zM931.134 246.613v-11.776c0 2.048 0.512 4.096 0.512 6.144s0 3.584-0.512 5.632zM931.646 84.821c0 2.048 0 4.096-0.512 6.144v-11.776c0.512 1.536 0.512 3.584 0.512 5.632zM931.134 90.453v-11.776c0 2.048 0.512 4.096 0.512 6.144s0 3.584-0.512 5.632zM910.653 411.989c-36.352 37.888-115.2 64-206.848 64-50.176 0-96.256-7.68-134.144-20.992-31.232-11.264-56.832-26.112-72.704-43.008-12.288-12.8-19.456-27.136-20.48-42.496v-121.856c-0.512-2.56-0.512-4.608-0.512-7.168s0-4.608 0.512-7.168v-141.824c-0.512-2.56-0.512-4.608-0.512-7.168s0-4.608 0.512-7.168c2.048-13.824 9.216-27.136 20.48-38.912 16.384-16.896 41.472-31.744 72.704-43.008 37.376-13.312 83.968-20.992 134.144-20.992 91.648 0 171.008 26.112 206.848 64 11.776 12.288 18.944 25.6 20.48 39.936v294.912c-2.048 14.336-9.216 27.136-20.48 38.912zM496.958 373.589c5.12 24.064 32.256 45.568 72.704 60.416 36.352 13.312 82.944 20.992 134.144 20.992 109.056 0 198.656-36.352 206.848-82.432 0.512-2.56 0.512-4.608 0.512-7.168s-0.512-4.608-0.512-7.168c-3.072-16.384-16.384-31.744-37.376-44.544-6.144-4.096-13.312-7.68-20.992-10.752-37.888-16.896-90.112-27.136-148.48-27.136-51.2 0-97.792 8.192-134.144 20.992-5.12 2.048-9.728 3.584-14.848 5.632-7.68 3.584-14.848 7.168-20.992 10.752-20.48 12.8-33.792 27.648-37.376 43.52-0.512 2.56-1.024 5.12-1.024 8.192s1.024 6.144 1.536 8.704zM910.653 130.389v-52.736c-8.192-46.080-97.792-82.432-206.848-82.432-51.2 0-97.792 8.192-134.144 20.992-40.448 14.848-68.096 36.352-72.704 60.416v117.76c11.264-11.776 27.136-22.528 46.080-31.744 7.68-3.584 15.872-7.168 24.576-10.24 0.512 0 1.536-0.512 2.048-0.512 37.376-13.312 83.968-20.992 134.144-20.992 51.2 0 97.792 8.192 136.192 21.504 8.704 3.072 16.896 6.656 24.576 10.24 18.944 9.216 34.816 19.968 46.080 32.256v-64.512zM910.653 286.549v-52.736c-4.096-24.064-31.232-45.568-71.168-60.928-10.24-4.096-22.016-7.168-33.792-10.24-30.208-7.168-65.024-11.776-101.888-11.776s-71.68 4.096-101.888 11.776c-11.264 2.56-22.016 6.144-31.744 9.728-0.512 0-1.536 0.512-2.048 0.512-39.424 14.848-66.048 35.84-71.168 59.904v87.040c5.632-5.632 12.288-11.264 19.456-16.896 5.632-3.584 11.264-7.68 17.92-10.752 10.752-5.632 22.528-10.752 35.84-15.36 37.376-13.312 83.968-20.992 134.144-20.992 67.584 0 128 14.336 169.984 36.352 6.144 3.584 12.288 7.168 17.92 10.752 7.68 5.12 13.824 10.752 19.456 16.384v-32.768z"  horiz-adv-x="1024" />

    
    <glyph glyph-name="sousuo" unicode="&#59751;" d="M949.535543-30.626275L816.882314 103.919047c38.427194 38.907125 68.682265 84.046185 89.910752 134.236284 22.349007 52.837392 33.680077 108.953458 33.680077 166.787654s-11.33107 113.949238-33.680077 166.787654c-21.581528 51.025117-52.473095 96.845699-91.817172 136.188752-39.343053 39.344077-85.164658 70.235644-136.188752 91.817172-52.838416 22.347984-108.953458 33.680077-166.787654 33.680077-57.834196 0-113.949238-11.332093-166.787654-33.680077-51.025117-21.581528-96.845699-52.473095-136.188752-91.817172-39.344077-39.343053-70.235644-85.163635-91.817172-136.188752C94.857926 518.893246 83.525833 462.777181 83.525833 404.942985s11.33107-113.950262 33.680077-166.787654c21.581528-51.024094 52.473095-96.845699 91.817172-136.188752 39.343053-39.344077 85.163635-70.235644 136.188752-91.817172 52.837392-22.349007 108.953458-33.680077 166.787654-33.680077 57.83522 0 113.949238 11.33107 166.787654 33.680077 39.274492 16.61133 75.450413 38.760792 107.978247 66.013483l133.6223-135.527697a20.399609 20.399609 0 0 1 14.57495-6.096858 20.404726 20.404726 0 0 1 14.368243 5.892197c8.048303 7.93574 8.140401 20.893866 0.204661 28.943193z m-437.536055 48.028876c-213.690894 0-387.540384 173.850513-387.540383 387.540384S298.308595 792.484392 511.999488 792.484392 899.540895 618.633878 899.540895 404.944008 725.690382 17.402601 511.999488 17.402601z"  horiz-adv-x="1024" />

    
    <glyph glyph-name="jiankang" unicode="&#58914;" d="M676.864 753.664H375.808c-120.832 0-219.136-98.304-219.136-219.136v-74.752c0-11.776 9.728-21.504 21.504-21.504s21.504 9.728 21.504 21.504V534.528c0 97.28 78.848 176.128 176.128 176.128h301.056c97.28 0 176.128-78.848 176.128-176.128v-301.056c0-97.28-78.848-176.128-176.128-176.128H375.808c-97.28 0-176.128 78.848-176.128 176.128v89.6h87.04c8.192 0 15.872 5.12 19.456 12.8l19.456 43.008 80.384-196.096c3.072-8.192 11.264-13.312 19.968-13.312h0.512c8.704 0.512 16.896 6.144 19.456 14.848l104.448 314.368L593.92 343.04c2.56-9.216 11.264-15.36 20.48-15.36h168.96c11.776 0 21.504 9.728 21.504 21.504s-9.728 21.504-21.504 21.504h-152.064l-58.368 206.848c-2.56 9.216-10.752 15.36-19.968 15.36-9.216 0.512-17.92-5.632-20.992-14.848l-108.032-325.632-77.824 188.416c-3.072 7.68-10.752 13.312-19.456 13.312-8.704 0.512-16.384-4.608-19.968-12.8l-34.304-75.776h-122.88c-11.776 0-21.504-9.728-21.504-21.504s9.728-21.504 21.504-21.504h7.168v-89.6c0-120.832 98.304-219.136 219.136-219.136h301.056c120.832 0 219.136 98.304 219.136 219.136V534.016c0 121.344-98.304 219.648-219.136 219.648z"  horiz-adv-x="1024" />

    
    <glyph glyph-name="renshu" unicode="&#59427;" d="M1092.266667 122.811733h-66.218667a245.282133 245.282133 0 0 1-243.985067 220.706134c-17.134933 0-34.065067-1.911467-50.244266-5.3248 17.8176 18.432 33.3824 39.048533 46.2848 61.44 3.413333-0.273067 6.621867-0.955733 10.0352-0.955734a153.258667 153.258667 0 0 1 153.258666 153.3952 153.258667 153.258667 0 0 1-153.258666 153.326934c-3.413333 0-6.7584-0.8192-10.0352-0.955734a311.022933 311.022933 0 0 1-41.233067 55.978667c16.520533 3.959467 33.518933 6.417067 51.2 6.417067a214.6304 214.6304 0 0 0 120.149333-392.533334A306.9952 306.9952 0 0 0 1092.266667 122.88zM572.279467 306.517333a443.528533 443.528533 0 0 0 314.231466-424.209066h-70.314666c0 2.116267 0.273067 4.232533 0.273066 6.417066 0 209.988267-169.984 380.177067-379.767466 380.177067a379.972267 379.972267 0 0 1-379.630934-380.245333c0-2.048 0.273067-4.232533 0.273067-6.3488H0a443.460267 443.460267 0 0 0 276.48 410.760533A316.757333 316.757333 0 0 0 411.648 896a316.6208 316.6208 0 0 0 160.631467-589.482667zM411.716267 832.648533a253.405867 253.405867 0 0 1 0-506.948266 253.405867 253.405867 0 0 1 0 506.948266z"  horiz-adv-x="1092" />

    
    <glyph glyph-name="jiameng" unicode="&#58894;" d="M384 192a32 32 0 0 0-9.6 62.4l567.136 179.2C828.8 600.96 640 832 544 832 425.6 832 244.192 655.04 184.32 586.88a32 32 0 0 0-48 42.24C145.92 640 372.64 896 544.032 896s444-415.36 474.496-462.72a31.776 31.776 0 0 0-17.248-47.68l-607.488-192A25.6 25.6 0 0 0 384 192z m95.392-320C308.192-128 35.904 287.36 5.408 334.72a32 32 0 0 0-3.2 28.16 31.776 31.776 0 0 0 20.448 19.52l606.848 192a32 32 0 1 0 19.2-60.8l-566.4-179.2C194.784 167.04 383.488-64 479.392-64c118.176 0 299.424 176.96 359.264 245.12a31.648 31.648 0 0 0 45.12 2.88 32 32 0 0 0 2.944-45.12C877.152 128 650.656-128 479.392-128z"  horiz-adv-x="1024" />

    
    <glyph glyph-name="yinzi" unicode="&#58884;" d="M219.465 351.485l190.149-100.079h170.135c-89.054 407.666-360.284 100.079-360.284 100.079z m630.497 250.198s-56.909 32.458-90.071 20.016c-45.054-16.888-70.054-80.063-70.054-80.063l10.008-20.016h140.109l30.025 10.007-20.017 70.056zM634.882 180.95a23.59 23.59 0 0 1-31.921-10.115c-0.459-0.929-48.27-91.565-148.124-115.833-12.715-3.099-20.456-15.873-17.329-28.559 2.092-8.482 8.522-14.757 16.362-17.083a23.743 23.743 0 0 1 12.324-0.293c120.545 29.281 176.604 135.507 178.939 140.013 5.971 11.592 1.396 25.851-10.251 31.87z m69.244 75.647c-7.058 2.091-11.895 2.707-11.895 2.707-32.174-2.688-65.755-2.697-94.898-2.229 8.267 98.192-49.112 188.665-146.396 217.417-20.544 6.079-42.124 8.953-62.579 8.649-75.187-1.095-144.93-43.286-181.14-110.77-24.765 15.5-50.009 32.847-75.645 52.639 0 0-4.398 2.12-11.454 4.212-24.033 7.095-79.018 13.947-96.814-63.585 0 0-58.886-216.783 96.063-353.58a668.185 668.185 0 0 1 174.882-80.61c106.541-31.499 184.678-25.685 184.678-25.685 204.233 30.571 272.129 244.765 272.129 244.765 26.995 74.815-22.901 98.964-46.931 106.07z m-265.612 176.31c75.931-22.449 124.327-99.121 117.027-175.832-59.451 4.222-112.97 11.875-158.827 25.118-45.544 13.799-150.461 66.985-150.461 66.985s55.347 118.2 192.261 83.729z m275.844-267.936c-42.35-144.508-206.395-212.364-234.053-217.701-10.994-1.896-87.657-1.533-175.539 25.118-50.001 15.157-113.146 36.455-158.827 75.352-134.001 114.123-87.08 298.234-76.446 307.205 11.776 9.93 8.844 25.626 14.807 29.086 6.879 3.997 18.95 0.909 22.488-0.138 0.459-0.137 0.88-0.283 1.3-0.41 86.875-66.185 178.833-114.251 274.007-143.082 89.835-25.918 179.857-31.558 282.116-25.196 5.164 0.32 15.568-0.595 22.188-0.266-2.93 1.264-2.99 1.517 2.889 0.266-0.835-0.129-1.817-0.212-2.889-0.266 6.067-2.615 24.445-9.564 27.959-16.484 3.146-6.147 5.277-18.247 0-33.484z m215.374 335.002c-6.449 0.644-11.582-3.568-14.757-8.454-3.245-5.161-16.146-36.885-50.148-58.611-5.248-3.361-1.748-24.267 1.907-29.046 2.443-3.197 6.479-4.779 10.457-4.477a12.129 12.129 0 0 1 5.678 1.858c49.895 31.587 65.268 79.652 65.55 81.9 0.685 5.786-12.314 16.193-18.687 16.83z m77.318 29.818c-0.968 45.866-33.875 48.505-48.759 47.333-4.368-0.352-7.192-1.027-7.192-1.027a561.52 561.52 0 0 0-50.402-20.739c-16.39 54.564-43.433 86.416-127.825 86.875-108.641 0.596-108.66-100.48-108.66-100.48s-41.83 1.691-60.313 7.018c0 0-2.901 0.224-7.27-0.117-14.885-1.173-46.924-8.914-40.256-54.34 0 0 13.563-128.9 128.958-170.33a411.227 411.227 0 0 1 114.484-7.037c65.979 5.2 108.191 24.561 108.191 24.561 107.048 58.903 99.044 188.283 99.044 188.283zM781.236 608.74c71.776-0.841 75.228-66.987 75.228-66.987 0.506-6.167-29.684-9.021-75.228-8.365-36.308 0.507-75.234 8.365-75.234 8.365s8.855 67.768 75.234 66.987z m108.671-226.078c-5.972-2.521-37.451-20.826-91.957-25.116-34.863-2.737-65.98 1.572-100.306 8.374-95.317 35.557-108.952 120.038-108.67 125.599 0.255 11.894 7.879 28.987 25.08 25.118 36.044-8.113 108.093-29.379 167.182-25.118 130.211 11.073 175.539 50.234 175.539 50.234s16.165 8.19 16.722-16.742c7.067-98.231-83.59-142.349-83.59-142.349zM84.26 605.798c6.978-6.988 18.286-6.988 25.254 0l53.03 53.121 53.031-53.121c6.977-6.988 18.286-6.988 25.253 0 6.978 6.978 6.978 18.305 0 25.292l-53.032 53.124 53.032 53.123c6.978 6.978 6.978 18.306 0 25.293-6.968 6.978-18.276 6.978-25.253 0l-53.031-53.122-53.03 53.122c-6.968 6.978-18.276 6.978-25.254 0-6.968-6.988-6.968-18.315 0-25.293l53.033-53.123-53.033-53.123c-6.968-6.987-6.968-18.315 0-25.293z m377.935 17.064h-92.856c0 4.252 2.541 9.256 7.634 15.012 5.081 5.756 15.021 13.917 29.817 24.491 15.354 10.849 26.525 20.144 33.495 27.884 6.978 7.74 12.293 16.028 15.968 24.853 3.675 8.815 5.512 18.707 5.512 29.653 0 19.635-6.352 35.037-19.078 46.228-12.715 11.181-30.014 16.771-51.866 16.771-23.838 0-45.32-6.176-64.456-18.54v-40.774c17.152 15.1 35.144 22.654 53.997 22.654 21.483 0 32.223-9.871 32.223-29.593 0-9.158-2.824-17.817-8.483-25.978-5.649-8.161-15.548-17.534-29.682-28.098-15.45-10.957-26.846-20.515-34.196-28.675-7.35-8.161-13.127-16.967-17.32-26.398-4.191-9.44-6.284-19.869-6.284-31.284v-16.283h145.573v38.077z"  horiz-adv-x="1024" />

    
    <glyph glyph-name="tousu" unicode="&#58892;" d="M592.885283 745.19881H431.169244V658.679033s-3.051246-40.073031 80.824117-74.586014c77.772871 33.902734 80.824117 76.620178 80.824117 76.620178V745.19881z m351.571349-60.279061l-58.583924-68.347911s-50.515073-55.668289-56.617565-104.488225c-311.90515 93.571545-674.935623 1.966359-674.935623 1.966358s-10.645458 47.463827-24.206552 74.586014S83.462807 668.103993 77.495925 680.919227s8.068851 22.104582 8.068851 22.104582S470.021776 895.320115 511.993361 895.998169s419.512427-189.855309 430.429107-194.940719 2.034164-16.137701 2.034164-16.137701zM188.696892 360.334976c1.898553 28.613907 17.019172 56.956593 23.392886 67.805468a232.708364 232.708364 0 0 0-17.358199 18.714309c278.002416 105.437502 626.997157 14.713786 632.4894 0a70.721103 70.721103 0 0 0-12.069373-13.900121A729.315608 729.315608 0 0 0 835.493246 360.334976s69.500604-33.902734 70.721102-126.660613-115.269295-144.696868-115.269294-144.696867-53.70193-193.72022-278.816082-216.977496c-227.826371 28.207074-278.816082 221.045824-278.816082 221.045824S122.315339 132.101773 119.942148 231.843616c-0.406833 21.901166-8.611294 98.317928 68.686939 128.830388z m105.16628-201.382238s53.023876-179.142045 218.130189-198.127576c149.172028 14.645981 210.603782 190.601169 210.603782 190.601169s121.032759 28.749518 85.367083 120.761538c-21.358722-19.663586-62.584446-11.120097-61.024921 22.647026a252.778783 252.778783 0 0 1-7.594212 81.366561 407.985498 407.985498 0 0 0-458.025932 1.152693 254.880752 254.880752 0 0 1-6.780547-80.213868c-2.644413-54.244374-57.973675-34.377372-58.78734-26.444132-33.902734-88.147108 77.772871-111.268772 77.772871-111.268773z"  horiz-adv-x="1024" />

    
    <glyph glyph-name="Ankerwebicon-" unicode="&#59017;" d="M669.320403 404.73264c0 6.382776 0 25.521998-25.518964 25.521999H248.236262c-12.762517 0-19.142258-12.759482-19.142257-25.521999 0-12.759482 6.379741-25.518963 19.142257-25.518963h401.944918c19.139222 0 19.139222 19.139222 19.139223 25.518963zM988.325655-73.769168l-70.18322 70.180184c-6.379741 6.379741-12.759482 6.379741-25.518963 6.379741 25.518963 31.901739 44.658186 70.183219 44.658186 114.841405 0 102.081923-82.939666 178.641849-178.641849 178.641849s-178.641849-82.939666-178.641848-178.641849c0-102.081923 82.939666-178.641849 178.641848-178.641848 44.661221 0 76.56296 12.759482 108.461665 38.28148 0-6.379741 0-12.759482 12.762516-25.521999l70.180185-70.180184c12.762517-12.759482 31.901739-12.759482 44.661221 0 6.379741 19.139222 6.379741 31.901739-6.379741 44.661221z m-229.685846 76.559925c-63.803478 0-114.841405 57.420703-114.841405 114.841405 0 63.800443 57.420703 114.841405 114.841405 114.841406s114.841405-57.420703 114.841406-114.841406c0-63.803478-44.658186-114.841405-114.841406-114.841405zM248.236262 213.334345c-12.762517 0-19.142258-12.759482-19.142257-25.521998 0-12.759482 6.379741-25.521998 19.142257-25.521999h223.30307c19.142258 0 25.521998 12.762517 25.521998 25.521999 0 6.382776 0 25.521998-25.521998 25.521998H248.236262zM675.700143 615.279263c-6.379741 6.379741-6.379741 25.518963-25.518963 25.518963H248.236262c-12.762517 0-19.142258-12.759482-19.142257-25.518963s6.379741-25.518963 19.142257-25.518963h401.944918c19.139222-0.003035 25.518963 12.759482 25.518963 25.518963zM504.309104-35.593916c-0.400631 0.036421-0.7527-0.145684-1.150296-0.130508-0.166929 0.01821-0.233701 0.227631-0.409736 0.227631l-2.227749-0.01214-322.46828 0.021245h-6.379741c-12.759482 0-25.521998 0-38.28148 6.379741-6.379741 6.379741-12.759482 12.759482-19.139223 25.518963-6.379741 6.379741-6.379741 25.521998-6.37974 38.28148V762.019372v6.379741c0 44.661221 6.379741 70.183219 38.278445 70.18322h586.969542c44.658186 0 38.278445-38.28148 38.278445-63.803479V391.973159c0-2.719433 0.461332-4.962358 1.141191-6.965512 2.321837-10.498346 10.877731-18.841785 22.156093-19.803905a25.260981 25.260981 0 0 1 27.318766 23.018056c0.042491 0.515964-0.182105 0.971226-0.169964 1.484155 0.112298 0.807332 0.594876 1.405243 0.594876 2.267206V787.538336 793.918077 806.680593c0 63.800443-31.898704 89.322442-70.180184 89.322442H127.012081c-25.518963 0-70.180184-31.901739-70.180184-76.56296V53.828684c0-25.518963 0-57.420703 6.379741-70.180184 12.759482-31.901739 38.28148-44.661221 70.180184-57.420703 6.379741 0 12.759482-6.379741 25.521998-6.379741h345.550073c1.198857 0 1.69661 0.619157 2.646591 0.837683 1.426488 0.312613 2.746749 0.713244 4.060939 1.286874 0.112298 0.091052 0.288333 0.121403 0.391525 0.218526 7.047459 3.250572 12.374026 9.791172 13.084236 18.076944a22.316953 22.316953 0 0 1-20.33808 24.138001z"  horiz-adv-x="1216" />

    
    <glyph glyph-name="jian" unicode="&#58898;" d="M512 892.9384745946074c-280.64997994951113 0-508.9384745946074-228.28849593963457-508.9384745946074-508.9384745946074S231.35002005048887-124.93847459460744 512-124.93847459460744 1020.9384745946074 103.35002005048887 1020.9384745946074 384 792.6499799495111 892.9384745946074 512 892.9384745946074z m0-946.8622781048099c-241.49722398720002 0-437.92380351020245 196.4265795230025-437.92380351020245 437.92380351020245s196.4265795230025 437.92380351020245 437.92380351020245 437.92380351020245 437.92380351020245-196.4265795230025 437.92380351020245-437.92380351020245-196.4265795230025-437.92380351020245-437.92380351020245-437.92380351020245zM748.7155698498369 419.5073348949333H275.28443015016296a35.50733489493334 35.50733489493334 0 0 1 0-71.01466978986667h473.4311396996741a35.50733489493334 35.50733489493334 0 0 1 0 71.01466978986667z"  horiz-adv-x="1024" />

    
    <glyph glyph-name="bizi" unicode="&#58885;" d="M533.093594-76.580444c-14.195289 0-93.940567 12.68794-164.785937 76.783012-24.340398 22.020393-56.230645 59.428845-56.230646 103.456523 0 39.191056 42.730047 98.960693 42.730048 98.960692C512.252865 442.104659 661.781816 889.6036 663.721708 895.986893c-53.622277-393.221295-296.488856-780.190371-296.357783-793.232211 0.943731-102.617651 160.958583-177.801562 165.729669-179.400662-0.878194-0.05243 3.44724 35.796245 0 0.065536zM689.936461-24.596588s90.152536-73.401308 138.322144-98.960693c46.806441-24.904015 44.984516 61.85371 15.728852 87.714564-54.002391 47.789495-154.050996 11.246129-154.050996 11.246129zM427.906897 474.715812a26.988088 26.988088 0 0 0-25.506954 18.193039L367.547429 594.124012a26.988088 26.988088 0 0 0 51.027016 17.603206l34.852515-101.215161a27.001196 27.001196 0 0 0-25.520063-35.796245zM333.428928 382.688922a27.07984 27.07984 0 0 0-11.600029 2.621475l-103.456522 49.296843a27.001196 27.001196 0 1 0 23.239378 48.746333l103.456523-49.296843a27.001196 27.001196 0 0 0-11.63935-51.367808zM186.102016 220.563782a26.988088 26.988088 0 0 0-2.385543 53.871317l114.689545 10.118895c14.732691 1.821925 27.918712-9.647029 29.242557-24.510794a26.961873 26.961873 0 0 0-24.510794-29.242557l-114.689545-10.118895a20.971802 20.971802 0 0 0-2.34622-0.117966z"  horiz-adv-x="1024" />

    
    <glyph glyph-name="jinbi" unicode="&#58937;" d="M438.908 493.726c92.373 0 188.38 20.314 246.025 58.993v-70.494h53.406v154.42c0 92.835-154.277 142.927-299.432 142.927s-299.425-50.093-299.425-142.928v-421.283c0-92.831 154.272-142.918 299.427-142.918v53.402c-152.429 0-246.021 52.14-246.021 89.517v126.71c57.651-38.678 153.653-58.994 246.021-58.994v53.406c-152.429 0-246.021 52.14-246.021 89.522v126.709c57.64-38.673 153.642-58.988 246.02-58.988v0zM438.908 726.167c152.434 0 246.025-52.141 246.025-89.522 0-37.377-93.593-89.513-246.025-89.513-152.429 0-246.021 52.135-246.021 89.513 0 37.381 93.593 89.522 246.021 89.522v0zM678.26 464.537c-132.588 0-201.963-51.009-201.963-101.39v-270.719c0-50.38 69.376-101.384 201.963-101.384 131.595 0 200.879 50.247 201.907 100.261h0.05v271.847c-0.001 50.381-69.367 101.384-201.957 101.384v0zM678.26 411.131c98.01 0 148.55-33.631 148.55-47.983 0-14.356-50.541-47.988-148.55-47.988-98.017 0-148.557 33.63-148.557 47.988 0 14.352 50.55 47.983 148.557 47.983v0zM678.26 44.459c-98.017 0-148.557 33.633-148.557 47.983v64.627c33.888-18.403 83.623-30.656 148.557-30.656s114.662 12.254 148.55 30.656v-64.627c0-14.351-50.541-47.983-148.55-47.983v0zM678.26 179.814c-98.017 0-148.557 33.631-148.557 47.983v64.627c33.888-18.404 83.623-30.662 148.557-30.662s114.662 12.248 148.55 30.652v-64.627c0-14.343-50.541-47.975-148.55-47.975v0zM678.26 179.814z"  horiz-adv-x="1024" />

    
    <glyph glyph-name="qiandao" unicode="&#58915;" d="M1043.093 659.122V466.28h56.5V659.122c0 67.725-55.408 122.831-123.501 122.831H857.67v-56.502h118.42c36.95 0.041 67.002-29.713 67.002-66.329m0-664.258c0-36.61-29.679-66.362-66.174-66.362h-854.28c-36.46 0-66.144 29.754-66.144 66.362V659.122c0 36.577 29.91 66.329 66.708 66.329h106.595v56.502H123.203C55.294 781.953 0 726.847 0 659.123v-664.259C0-72.896 55.03-128 122.64-128h854.279c67.645 0 122.674 55.104 122.674 122.864v177.97h-56.5v-177.97zM419.398 781.987h252.883v-56.495H419.398zM265.275 362.549c0-15.518 6.391-30.943 17.363-41.92 10.976-10.972 26.402-17.363 41.92-17.363 15.523 0 30.948 6.391 41.92 17.363 10.977 10.977 17.368 26.402 17.368 41.92 0 15.523-6.391 30.948-17.368 41.92-10.972 10.977-26.397 17.368-41.92 17.368-15.518 0-30.944-6.391-41.92-17.368-10.972-10.972-17.363-26.397-17.363-41.92m248.929 0c0-15.518 6.385-30.943 17.363-41.92 10.977-10.972 26.402-17.363 41.92-17.363 15.523 0 30.948 6.391 41.92 17.363 10.977 10.977 17.362 26.402 17.362 41.92 0 15.523-6.385 30.948-17.362 41.92-10.972 10.977-26.397 17.368-41.92 17.368-15.518 0-30.943-6.391-41.92-17.368-10.978-10.972-17.363-26.397-17.363-41.92M265.275 172.907c0-15.522 6.391-30.942 17.363-41.919 10.976-10.977 26.402-17.364 41.92-17.364 15.523 0 30.948 6.387 41.92 17.364 10.977 10.977 17.368 26.397 17.368 41.919 0 15.525-6.391 30.944-17.368 41.921-10.972 10.977-26.397 17.361-41.92 17.361-15.518 0-30.944-6.384-41.92-17.36-10.972-10.978-17.363-26.397-17.363-41.922m248.929 0c0-15.522 6.385-30.942 17.363-41.919s26.402-17.364 41.92-17.364c15.523 0 30.948 6.387 41.92 17.364 10.977 10.977 17.362 26.397 17.362 41.919 0 15.525-6.385 30.944-17.362 41.921-10.972 10.977-26.397 17.361-41.92 17.361-15.518 0-30.943-6.384-41.92-17.36s-17.363-26.397-17.363-41.922M327.874 623.72c21.62 0 38.908 17.478 38.908 39.023V856.977C366.782 878.937 349.38 896 327.874 896c-21.622 0-38.91-17.477-38.91-39.023v-194.274c0.041-21.96 17.444-38.983 38.91-38.983m439.512 0c21.621 0 38.909 17.478 38.909 39.023V856.977C806.296 878.937 788.892 896 767.386 896c-21.62 0-38.908-17.477-38.908-39.023v-194.274c0.04-21.96 17.435-38.983 38.908-38.983m409.007-231.487l-37.213 42.484L870.325 199.5 769.008 314.98l-42.45-37.289L865.13 119.837z"  horiz-adv-x="1176" />

    
    <glyph glyph-name="gonggao" unicode="&#58908;" d="M943.744 556.032h-200.96L585.6 713.344c21.76 36.352 13.952 83.072-18.432 110.464-32.384 27.264-79.872 27.136-112-0.512-32.128-27.648-39.552-74.496-17.536-110.592L281.088 556.032H79.232c-15.872-0.128-28.544-13.056-28.544-28.8V-48.64c0-15.616 12.8-28.8 28.544-28.8h864.512c15.872 0.128 28.544 13.056 28.544 28.8V527.232c0 15.872-12.8 28.672-28.544 28.8z m-461.056 120.192c18.816-6.656 39.424-6.528 58.24 0.256l120.448-120.448H362.496l120.192 120.192zM165.888 383.232h288v-57.6h-288v57.6z m460.8-288h-460.8v57.6h460.8v-57.6z m172.8 115.2h-633.6v57.6h633.6v-57.6z"  horiz-adv-x="1024" />

    
    <glyph glyph-name="bangzhu" unicode="&#58929;" d="M510.937-32.889c-228.861 0-414.389 185.528-414.389 414.392 0 228.859 185.528 414.387 414.389 414.387s414.389-185.528 414.389-414.387c0-228.864-185.528-414.392-414.389-414.392z m0 787.34c-205.974 0-372.951-166.976-372.951-372.951s166.976-372.951 372.951-372.951 372.95 166.977 372.95 372.951-166.976 372.951-372.95 372.951z m58.899-212.375c-2.348-9.409-10.803-15.68-20.071-15.68-1.678 0-3.357 0.203-5.058 0.624-11.108 2.772-17.848 14.048-15.055 25.133l5.242 21.003c2.791 11.087 14 17.765 25.131 15.096 11.087-2.772 17.846-14.025 15.092-25.133l-5.281-21.043z m-18.158-103.37l-52.992-212.022 26.345 8.783c10.946 3.663 22.58-2.248 26.202-13.091 3.622-10.867-2.246-22.603-13.091-26.204l-62.158-20.717a20.31 20.31 0 0 0-6.556-1.075 20.737 20.737 0 0 0-14.083 5.526 20.687 20.687 0 0 0-6.009 20.214l53.782 215.145-49.391-12.341c-11.108-2.774-22.338 3.964-25.11 15.073-2.793 11.087 3.966 22.346 15.073 25.118l82.878 20.722c7.022 1.738 14.529-0.305 19.667-5.453 5.14-5.151 7.225-12.616 5.443-19.678z"  horiz-adv-x="1024" />

    
    <glyph glyph-name="icon-test" unicode="&#58990;" d="M552.203 170.944c0.846-0.087 3.811 1.508 8.256 4.207-14.45-3.083-31.057-4.856-48.076-4.87 14.1-0.070 26.833 0.125 39.82 0.663zM484.197 170.944c7.789-0.317 15.457-0.487 23.1-0.596-10.933 0.206-21.463 1.102-31.781 2.65 7.064-1.625 8.206-2.104 8.68-2.054zM511.825 895.529c-282.774 0-511.825-229.051-511.825-511.825 0-174.095 86.916-327.821 219.733-420.252 25.854 89.861 90.915 157.604 179.439 188.769-22.938 35.196-31.152 55.098-30.102 64.869-36.106 26.814-64.117 62.623-80.951 104.158-221.592-23.927-6.803 480.455 223.823 359.159 52.395 27.566 103.677 23.050 148.837-0.754 18.594 21.359 41.952 37.362 47.746 21.53l17.357-47.226 16.39-44.893 1.983-2.541 48.338-9.001 49.471-9.093c25.358-4.757-16.257-62.812-44.006-78.561 41.661-110.196 26.678-229.767-92.189-241.522-25.513-34.311-59.098-61.253-98.013-78.271 64.72 28.954 60.043 8.361 26.954-41.734 83.288-32.668 144.338-98.516 169.142-184.833 132.78 92.435 219.7 246.141 219.7 420.194 0 282.774-229.172 511.825-511.825 511.825zM480.89 172.281c8.672-1.116 17.477-1.766 26.412-1.933 2.137-0.029 4.274-0.054 6.402-0.067 17.078 0.111 33.658 1.975 49.649 5.421 20.123 13.389 83.001 56.741 99.904 48.103 32.951 26.796 58.469 61.502 73.799 101.271-34.654-57.069-38.194-57.336-41.839-57.498-2.108-0.087-4.244-0.15-6.406-0.175 34.826 50.533 52.536 112.753 42.027 194.104l-219.129-1.050-215.71 1.050c-10.509-81.347 7.202-143.572 42.031-194.104-8.052 0.092-15.873 0.639-23.56 1.617 29.863-36.494 65.64-64.546 107.15-81.428-49.343 59.385 40.181-5.093 59.27-15.31zM634.804 148.343l-0.662-1.012-115.944 0.117-115.823-0.117c-1.116 1.679-2.153 3.278-3.203 4.894-88.524-31.164-153.585-98.908-179.439-188.769 82.826-57.639 183.483-91.456 292.092-91.456 108.6 0 209.283 33.843 292.125 91.515-24.804 86.312-85.858 152.16-169.146 184.828zM518.198 147.448l115.944-0.117 0.662 1.012c33.089 50.095 37.766 70.693 28.449 75.462-16.903 8.639-79.777-34.713-102.794-48.658-4.444-2.695-7.41-4.294-8.256-4.207-9.889-0.431-21.488-0.677-33.145-0.677-4.135 0-8.263 0.031-12.383 0.092-11.433 0.14-22.9 0.515-34.306 1.119 11.354-0.581 10.212-0.098 8.521 0.806-19.089 10.217-108.613 74.695-111.82 44.814-1.050-9.776 7.164-29.673 30.102-64.869 1.050-1.616 2.087-3.211 3.203-4.894l115.823 0.117zM295.999 461.511l218.305-1.062 216.534 1.062c10.509-81.347-7.202-143.572-42.027-194.104 6.836 0.080 13.471 0.5 20.008 1.245 115.916 11.455 130.899 131.027 89.238 241.223-9.459-5.369-17.311-5.844-20.343 2.408l-17.24 47.226-17.352 47.226-98.829 18.419c-17.544 3.278-3.199 31.893 16.486 54.502-45.164 23.804-96.442 28.315-148.837 0.754-230.621 121.296-445.414-383.082-194.388-411.734 6.767-0.808 14.611-1.272 22.562-1.279-36.915 50.545-54.626 112.766-44.117 194.117zM743.121 606.732l1.129-0.208c-23.541 30.313-52.093 55.462-84.618 74.577l83.489-74.369zM743.121 606.732l17.352-47.226 17.24-47.226c3.032-8.251 10.884-7.777 20.343-2.408 27.749 15.753 69.364 73.808 44.006 78.561l-49.471 9.093-49.471 9.205zM644.297 625.151l98.829-18.419-0.85 2.333-16.39 44.893-17.357 47.226c-5.794 15.828-29.153-0.175-47.746-21.53-19.685-22.609-34.030-51.224-16.486-54.502z"  horiz-adv-x="1024" />

    
    <glyph glyph-name="weizhi-copy" unicode="&#58880;" d="M512 896c-217.792 0-394.965-177.152-394.944-394.923 0-80.896 24.299-158.677 69.781-224.149 2.283-3.925 4.587-7.723 7.296-11.413l288.277-379.989c7.829-8.725 18.347-13.525 29.611-13.525 11.115 0 21.696 4.843 30.848 15.104l286.955 378.475c2.837 3.755 5.248 7.872 6.571 10.283 46.144 66.389 70.571 144.256 70.571 225.173-0 217.813-177.173 394.965-394.965 394.965zM512 359.829c-77.781 0-141.077 63.296-141.077 141.099 0 77.781 63.296 141.056 141.077 141.056 77.781 0 141.077-63.296 141.077-141.056 0-77.803-63.296-141.099-141.077-141.099z"  horiz-adv-x="1024" />

    
    <glyph glyph-name="laba" unicode="&#58903;" d="M64 523.207c0 16.505 5.872 30.469 17.615 41.896 11.744 11.427 25.867 17.139 42.372 17.139h59.987v-267.563h-59.987c-16.504 0-30.628 5.714-42.372 17.139C69.872 343.245 64 357.211 64 373.715V523.207z m666.525 245.662c27.296 26.027 52.052 40.309 74.27 42.848 22.217 2.539 41.896-3.332 59.035-17.615 17.139-14.282 31.739-35.231 43.8-62.843 12.061-27.613 21.901-58.4 29.518-92.362 7.617-33.961 13.33-69.508 17.139-106.643 3.808-37.135 5.713-72.525 5.713-106.168s-2.381-67.287-7.141-100.931c-4.76-33.643-11.743-65.224-20.948-94.742-9.204-29.517-19.995-55.384-32.374-77.602-12.378-22.219-26.185-38.722-41.419-49.514-15.235-10.791-31.58-14.6-49.037-11.425-17.457 3.174-35.707 15.551-54.751 37.134-18.408 21.583-43.324 39.516-74.746 53.798-31.422 14.282-65.7 26.343-102.835 36.183a1130.507 1130.507 0 0 1-112.833 23.804c-38.087 6.031-73 11.427-104.739 16.187s-58.242 9.364-79.507 13.806c-21.265 4.444-33.168 9.84-35.707 16.188V587.003c2.539 8.886 12.537 16.187 29.994 21.9 17.456 5.713 39.673 11.109 66.652 16.187 26.978 5.078 57.448 10.633 91.409 16.663 33.961 6.031 68.557 14.282 103.788 24.757 35.231 10.474 69.668 23.804 103.312 39.992 33.642 16.187 64.111 36.976 91.407 62.367zM387.74 185.184c3.175-7.617 6.983-15.87 11.427-24.757 3.808-8.253 8.887-17.775 15.235-28.566 6.348-10.791 13.966-22.535 22.852-35.231 10.792-15.235 21.742-31.263 32.851-48.085 11.109-16.823 19.519-32.057 25.233-45.705 5.713-13.648 7.458-24.915 5.237-33.802s-11.267-13.331-27.137-13.331h-54.273c-12.697 0-24.44 2.38-35.231 7.141-10.792 4.761-21.107 12.061-30.947 21.9-9.839 9.84-19.995 22.377-30.469 37.612-10.474 15.235-21.741 33.326-33.802 54.273-14.6 24.122-24.757 45.229-30.47 63.32-5.713 18.092-9.521 33.168-11.425 45.229-2.539 13.964-2.539 26.026 0 36.182 5.078-0.634 11.109-1.903 18.092-3.808a2696 2696 0 0 0 20.947-4.762c8.253-1.904 17.774-3.808 28.566-5.713 10.791-2.539 20.472-4.92 29.041-7.141 8.57-2.221 16.346-4.602 23.329-7.141 7.614-2.537 14.597-5.076 20.944-7.615z"  horiz-adv-x="1024" />

    
    <glyph glyph-name="wodedingdan1" unicode="&#58931;" d="M836.261092 867.73613h-91.857577l-65.0069-176.083908a7.065967 7.065967 0 0 0-6.783329-4.804858H352.383642a7.065967 7.065967 0 0 0-6.783329 4.804858L280.593413 867.73613H187.040004A92.705493 92.705493 0 0 1 95.747705 776.443831V-8.443831a92.705493 92.705493 0 0 1 92.705493-92.705493h650.069003A92.705493 92.705493 0 0 1 928.683946-8.443831V776.443831A92.705493 92.705493 0 0 1 836.261092 867.73613zM836.261092 896h-650.069004A119.556169 119.556169 0 0 1 67.483835 776.443831V-8.443831a119.556169 119.556169 0 0 1 119.556169-119.556169h650.069004A119.556169 119.556169 0 0 1 955.534622-8.443831V776.443831A119.556169 119.556169 0 0 1 836.261092 896z m-130.29644-53.701352l-46.918023-128.600608H365.9503L319.032276 842.298648zM901.833269-8.443831a65.854816 65.854816 0 0 0-65.854816-65.854817h-650.069004A65.854816 65.854816 0 0 0 121.185188-8.443831V776.443831A65.854816 65.854816 0 0 0 187.040004 842.298648h74.899255l58.50621-159.973503a34.199282 34.199282 0 0 1 31.938173-22.328457h320.229644a34.199282 34.199282 0 0 1 31.938173 22.328457l58.50621 159.973503h73.203423a65.854816 65.854816 0 0 0 65.854816-65.854817zM267.309394 394.598951l491.226056 0 0-53.701352-491.226056 0 0 53.701352ZM267.309394 201.274082l491.226056 0 0-53.701352-491.226056 0 0 53.701352Z"  horiz-adv-x="1024" />

    
    <glyph glyph-name="yuanquan1" unicode="&#58917;" d="M512.501469 896C229.67287 896 0 666.32713 0 383.498531s229.67287-511.498531 512.501469-511.498531 511.498531 228.669931 511.498531 511.498531S795.330069 896 512.501469 896z m0-746.186092c-129.37904 0-233.684623 105.308521-233.684623 233.684623 0 129.37904 104.305583 233.684623 233.684623 233.684623 128.376102 0 233.684623-104.305583 233.684623-233.684623 0-128.376102-105.308521-233.684623-233.684623-233.684623z"  horiz-adv-x="1024" />

    
    <glyph glyph-name="fuwu" unicode="&#59297;" d="M712.32 240a224.736 224.736 0 0 0-193.984-112 224.832 224.832 0 0 0-194.048 112 32 32 0 1 0 55.36 32 160.8 160.8 0 0 1 138.688-80 160.48 160.48 0 0 1 138.56 80A32 32 0 1 0 712.32 240M800.256 640H223.744A63.808 63.808 0 0 1 160 576.256v-512.416C160 28.608 188.576 0 223.744 0h576.512A63.872 63.872 0 0 1 864 63.808V576.224A63.84 63.84 0 0 1 800.256 640M512 736c52.928 0 96-43.072 96-96h64c0 88.224-71.776 160-160 160s-160-71.776-160-160h64c0 52.928 43.072 96 96 96"  horiz-adv-x="1024" />

    
    <glyph glyph-name="wodeyouhuiquan1" unicode="&#58907;" d="M971.254434 528.330105l-73.566316 78.201263a34.277053 34.277053 0 0 1-24.414316 10.940632c-8.730947-0.781474-18.054737-3.476211-24.629895-10.186105-30.881684-31.043368-84.210526-30.477474-114.364631 1.347368a84.237474 84.237474 0 0 0-22.959158 59.041684 84.506947 84.506947 0 0 0 24.414316 58.47579 36.378947 36.378947 0 0 1 0.727579 50.418526L662.680118 854.770526C628.942013 890.448842 569.307486 891.203368 534.464539 856.306526L54.424118 372.493474a93.911579 93.911579 0 0 1-27.432421-65.751579 93.561263 93.561263 0 0 1 25.734737-66.128842l73.62021-78.039579c6.305684-6.871579 15.252211-10.698105 24.414316-10.913685 8.003368 0 18.054737 3.449263 24.522105 10.159158 30.800842 30.854737 84.102737 30.288842 114.256842-1.562947 15.117474-15.872 23.309474-36.783158 23.093895-59.014737a84.210526 84.210526 0 0 0-24.414316-58.475789 36.378947 36.378947 0 0 1-0.727579-50.391579l73.83579-78.201263a88.279579 88.279579 0 0 1 64.835368-28.213895c23.632842 0 46.214737 9.431579 63.380211 26.677895l480.202105 484.001684a93.696 93.696 0 0 1 27.216842 65.751579 92.698947 92.698947 0 0 1-25.707789 65.94021z m-49.744842-80.518737l-480.417685-484.24421a21.504 21.504 0 0 0-30.154105 0.215579l-52.412631 55.592421a155.486316 155.486316 0 0 1 23.309473 80.707368 155.567158 155.567158 0 0 1-42.684631 109.621895 146.809263 146.809263 0 0 1-107.52 46.592 144.788211 144.788211 0 0 1-77.096421-21.854316L102.12096 290.034526a21.773474 21.773474 0 0 0-6.170947 15.548632 23.093895 23.093895 0 0 0 6.521263 15.521684l480.417684 484.244211a21.584842 21.584842 0 0 0 30.208-0.188632l52.358737-55.619368a156.052211 156.052211 0 0 1-23.309474-80.896 155.674947 155.674947 0 0 1 42.684632-109.648842 147.024842 147.024842 0 0 1 107.573894-46.592 145.084632 145.084632 0 0 1 77.096422 21.881263l52.358736-55.619369a21.288421 21.288421 0 0 0 6.170948-15.306105 22.824421 22.824421 0 0 0-6.521263-15.548632zM561.843065 562.634105a33.792 33.792 0 0 1-48.990316 0l-193.643789-199.168a36.244211 36.244211 0 0 1 0-50.391579c6.898526-7.087158 15.683368-10.563368 24.629895-10.563368s17.677474 3.449263 24.576 10.347789l193.42821 199.329685a36.271158 36.271158 0 0 1 0 50.445473zM616.465381 455.868632l-193.643789-198.979369a36.190316 36.190316 0 0 1 0-50.418526 34.007579 34.007579 0 0 1 48.990315-0.188632l193.64379 199.141053a36.217263 36.217263 0 0 1 0 50.445474 33.845895 33.845895 0 0 1-48.990316 0z"  horiz-adv-x="1024" />

    
    <glyph glyph-name="zhanghuyuanquan" unicode="&#58886;" d="M927.55968 794.309973L517.645653 870.8608 115.585707 794.309973l-35.833174-5.358933v-494.906027c0-29.682347 7.55712-59.200853 22.766934-88.541866 15.12448-29.433173 34.9184-57.84576 59.392-85.46304 24.470187-27.572907 52.312747-53.705387 83.469653-78.318934 31.204693-24.664747 62.928213-46.615893 95.27296-65.87392 32.33792-19.295573 63.49824-35.341653 93.518507-48.090453 30.020267-12.752213 56.374613-21.49376 79.100586-26.262187l9.611947-1.778346 10.489173 1.778346c22.155947 4.768427 47.940267 13.509973 77.346134 26.262187 29.416107 12.7488 59.6992 28.79488 90.90048 48.090453 31.167147 19.258027 61.883733 41.209173 92.218026 65.87392 30.276267 24.610133 57.245013 50.746027 80.848214 78.318934 23.59296 27.61728 42.653013 56.029867 57.245013 85.46304 14.55104 29.344427 21.848747 58.85952 21.848747 88.541866V788.947627l-26.221227 5.362346z m-61.88032-510.02368c0-22.8352-5.420373-45.38368-16.346453-67.556693-10.881707-22.213973-25.43616-43.5712-43.700907-64.095573-18.305707-20.56192-39.243093-39.857493-62.969173-57.801387a697.675093 697.675093 0 0 0-74.031787-48.940373 657.431893 657.431893 0 0 0-77.83424-38.17472c-26.309973-10.758827-50.650453-18.742613-73.03168-23.978667v444.450133H167.85408V740.430507l345.070933 59.746986 4.850347-0.965973v-371.019093h347.907413v-143.906134h-0.003413z"  horiz-adv-x="1024" />

    
    <glyph glyph-name="wodedingdan2" unicode="&#58944;" d="M294.585 423.254h435.572v-54.705H294.585z m0-214.24H563.53v-54.697H294.585z m617.551 463.624a98.072 98.072 0 0 1-21.083 31.275c-9.032 9.03-19.555 16.125-31.28 21.088-12.155 5.137-25.048 7.743-38.32 7.743H753.25v8.693c0 34.584-28.136 62.721-62.72 62.721h-59.542c-11.107 21.334-27.77 39.29-48.296 52.017A134.056 134.056 0 0 1 512 876.313a134.044 134.044 0 0 1-70.691-20.14c-20.524-12.727-37.19-30.683-48.301-52.017H333.47c-34.584 0-62.72-28.137-62.72-62.721v-8.693h-68.204c-13.271 0-26.163-2.605-38.32-7.743-11.716-4.958-22.238-12.052-31.275-21.088-9.037-9.038-16.13-19.56-21.082-31.274-5.141-12.149-7.748-25.042-7.748-38.32v-644.205c0-13.281 2.607-26.175 7.748-38.32 4.954-11.715 12.047-22.237 21.082-31.276 9.039-9.038 19.562-16.13 31.275-21.082 12.16-5.141 25.052-7.747 38.32-7.747h618.909c13.27 0 26.162 2.608 38.319 7.748 11.725 4.957 22.248 12.05 31.28 21.083a98.082 98.082 0 0 1 21.084 31.274c5.137 12.155 7.743 25.048 7.743 38.32V634.317c-0.001 13.274-2.607 26.167-7.745 38.32z m-90.682-726.921H202.545c-24.48 0-44.397 19.917-44.397 44.397V634.317c0 24.48 19.916 44.395 44.397 44.395h68.204v-95.215h482.5v95.215h68.205c24.484 0 44.402-19.915 44.402-44.395v-644.204c0-24.48-19.918-44.396-44.402-44.396z m-385.2 822.61C447.39 800.6 477.832 822.283 512 822.283c34.168 0 64.607-21.683 75.744-53.956l6.282-18.2h96.504c4.795 0 8.696-3.9 8.696-8.692v-103.908h-374.45V741.434c0 4.793 3.9 8.693 8.694 8.693h96.5l6.285 18.2z"  horiz-adv-x="1024" />

    
    </font>
</defs>
</svg>
